<svg t="1634012423228" class="icon" viewBox="0 0 1097 1024" version="1.1" xmlns="http://www.w3.org/2000/svg" p-id="3681" width="14" height="14">
    <path d="M958.902857 73.142857a73.142857 73.142857 0 0 1 73.142857 73.142857v731.428572a73.142857 73.142857 0 0 1-73.142857 73.142857h-877.714286a73.142857 73.142857 0 0 1-73.142857-73.142857V146.285714a73.142857 73.142857 0 0 1 73.142857-73.142857h877.714286z m-73.142857 73.142857h-731.428571a73.142857 73.142857 0 0 0-73.142858 73.142857v585.142858a73.142857 73.142857 0 0 0 73.142858 73.142857h731.428571a73.142857 73.142857 0 0 0 73.142857-73.142857V219.428571a73.142857 73.142857 0 0 0-73.142857-73.142857zM232.740571 702.390857l30.208-83.309714H409.6l32.036571 83.309714h80.457143L375.296 335.872H296.96l-142.774857 366.445714h78.555428zM385.755429 557.348571H285.769143l49.517714-136.045714 50.468572 136.045714zM636.342857 702.390857V591.652571l59.977143-61.293714 100.790857 172.032h95.817143l-145.554286-223.817143 138.020572-142.701714h-99.474286L636.196571 498.614857V335.872H562.322286v366.445714h73.947428z" p-id="3682" fill="#2684FC"></path>
</svg>