<svg t="1633775455176" class="icon" viewBox="0 0 1024 1024" version="1.1" xmlns="http://www.w3.org/2000/svg" p-id="10669" width="24" height="24">
    <path d="M887.466667 42.666667H136.533333C61.44 42.666667 0 103.893333 0 178.773333v521.642667c0 74.837333 61.44 136.021333 136.533333 136.021333h341.333334V904.533333H352.725333a34.986667 34.986667 0 0 0-34.133333 34.005334c0 18.176 15.914667 34.048 34.133333 34.048h318.549334c18.218667 0 34.133333-15.872 34.133333-34.048a34.944 34.944 0 0 0-34.133333-34.005334H546.133333v-68.053333h341.333334c75.093333 0 136.533333-61.184 136.533333-136.021333V178.730667C1024 103.893333 962.56 42.666667 887.466667 42.666667z m68.266666 657.749333c0 38.528-29.568 68.010667-68.266666 68.010667H136.533333c-38.698667 0-68.266667-29.482667-68.266666-68.010667V178.730667c0-38.570667 29.568-68.010667 68.266666-68.010667h750.933334c38.698667 0 68.266667 29.44 68.266666 68.010667v521.685333z m-131.968-387.84l-182.058666 249.472a32.426667 32.426667 0 0 1-27.306667 13.610667c-11.392 0-20.48-6.826667-27.306667-15.914667l-154.752-229.034667-177.493333 274.432c-6.826667 9.088-18.176 15.872-29.568 15.872-6.826667 0-13.653333-2.261333-18.218667-4.522666-15.914667-9.088-20.48-31.786667-11.392-47.658667l204.8-317.482667c6.826667-9.088 15.957333-15.914667 27.306667-15.914666 11.434667 0 22.784 4.522667 27.306667 15.914666l154.752 231.296 152.490666-210.901333c11.349333-15.872 31.829333-18.176 47.786667-6.826667 22.741333 11.349333 25.002667 31.786667 13.653333 47.658667z" p-id="10670" fill="#ffffff"></path>
</svg>