<?xml version="1.0" encoding="UTF-8"?>
<svg width="24px" height="24px" viewBox="0 0 24 24" version="1.1" xmlns="http://www.w3.org/2000/svg" xmlns:xlink="http://www.w3.org/1999/xlink">
    <title>help</title>
    <g id="页面-1" stroke="none" stroke-width="1" fill="none" fill-rule="evenodd" opacity="0.9">
        <g id="header" transform="translate(-1230.000000, -15.000000)">
            <g id="help" transform="translate(1230.000000, 15.000000)">
                <rect id="矩形" x="0" y="0" width="24" height="24"></rect>
                <path d="M12.2160889,4.38101649 C10.0592393,4.38101649 8.30090878,6.04240996 8.10703467,8.15079098 L8.09895658,8.23964995 L8.09895658,8.26388421 C8.09895658,8.71625715 8.46785594,9.08515651 8.92022888,9.08515651 C9.37260182,9.08515651 9.74150118,8.71625715 9.74150118,8.26388421 L9.74150118,8.24772804 C9.88421407,7.00370246 10.9370582,6.02625379 12.2160889,6.02625379 C13.5920565,6.02625379 14.7202962,7.15180074 14.7202962,8.53046112 C14.7202962,9.90912151 13.5947492,11.0346685 12.2160889,11.0346685 C12.1918546,11.0346685 12.1676203,11.0319758 12.1460788,11.0292831 C12.1460788,11.0319758 12.1433861,11.0346685 12.1406934,11.0373612 C11.7233255,11.0750589 11.3948166,11.4278021 11.3948166,11.8559408 L11.3948166,15.0387075 C11.3948166,15.4910804 11.7637159,15.8599798 12.2160889,15.8599798 C12.6684618,15.8599798 13.0373612,15.4910804 13.0373612,15.0387075 L13.0373612,12.5964322 C14.9303265,12.2140693 16.3628408,10.5365197 16.3628408,8.53315382 C16.3601481,6.24166947 14.5021878,4.38101649 12.2160889,4.38101649 Z M11.3948166,17.1578593 C11.3948166,17.6114355 11.7625127,17.9791316 12.2160889,17.9791316 C12.669665,17.9791316 13.0373612,17.6114355 13.0373612,17.1578593 C13.0373612,16.7042831 12.669665,16.336587 12.2160889,16.336587 C11.7625127,16.336587 11.3948166,16.7042831 11.3948166,17.1578593 L11.3948166,17.1578593 Z M22.4537193,10.2268596 C22.4537193,4.580276 17.876136,0 12.2268596,0 C6.580276,0 2,4.57758331 2,10.2268596 C2,13.8404578 3.87680916,17.0043756 6.70683272,18.8219455 L11.6452373,23.7603501 C11.744867,23.8599798 11.8660384,23.9299899 11.9925951,23.964995 C12.0168294,23.973073 12.0437563,23.9784584 12.0706833,23.9838438 C12.1218445,23.9946146 12.1756984,24 12.2268596,24 C12.2780209,24 12.3291821,23.9946146 12.3776506,23.9865365 C12.383036,23.9865365 12.3857287,23.9838438 12.3911141,23.9838438 C12.4153484,23.9784584 12.4368899,23.973073 12.4584315,23.9676876 C12.471895,23.964995 12.4826658,23.9596096 12.4961292,23.9542242 C12.5203635,23.9461461 12.5472905,23.9353753 12.5715247,23.9246045 C12.595759,23.9138337 12.6199933,23.9003702 12.6442275,23.8869068 C12.6630764,23.876136 12.6819253,23.8626725 12.7034668,23.849209 C12.7411646,23.8222821 12.7761696,23.7926624 12.808482,23.7603501 L17.752272,18.8165601 C20.5796028,16.9989902 22.4537193,13.8377651 22.4537193,10.2268596 Z M16.8205991,17.4432851 L16.8205991,17.470212 C16.7559744,17.5052171 16.6940424,17.5509929 16.6374958,17.6075395 L12.2295523,22.0181757 L7.81891619,17.6102322 C7.78391114,17.5752272 7.74890609,17.5456075 7.70851565,17.5186806 L7.70851565,17.5106025 C5.27431841,15.9946146 3.64523729,13.3019185 3.64523729,10.2268596 C3.64523729,5.49309997 7.49579266,1.64523729 12.2295523,1.64523729 C16.963312,1.64523729 20.8111747,5.49579266 20.8111747,10.2268596 C20.8111747,13.2669135 19.2117132,15.9192191 16.8205991,17.4432851 Z" id="形状" fill="#FFFFFF" fill-rule="nonzero"></path>
            </g>
        </g>
    </g>
</svg>