<?xml version="1.0" encoding="UTF-8"?>
<svg width="14px" height="15px" viewBox="0 0 14 15" version="1.1" xmlns="http://www.w3.org/2000/svg" xmlns:xlink="http://www.w3.org/1999/xlink">
    <title>批量@1x</title>
    <g id="Data-Modele" stroke="none" stroke-width="1" fill="none" fill-rule="evenodd">
        <g id="7.1-API-Monitor-" transform="translate(-132.000000, -156.000000)" fill-rule="nonzero">
            <g id="编组-5" transform="translate(108.000000, 148.000000)">
                <g id="编组-11" transform="translate(24.000000, 6.000000)">
                    <g id="批量" transform="translate(0.000000, 2.000000)">
                        <rect id="矩形" fill="#000000" opacity="0" x="0" y="1" width="14" height="14"></rect>
                        <path d="M13.448,5.648 C13.744,5.648 13.984,5.888 13.976,6.184 L13.976,6.184 L13.976,12.768 C13.992,13.448 13.432,14 12.752,14 L12.752,14 L3.744,14 C3.44,14 3.208,13.76 3.208,13.464 C3.208,13.16 3.448,12.928 3.744,12.928 L3.744,12.928 L12.744,12.928 C12.84,12.928 12.912,12.856 12.912,12.76 L12.912,12.76 L12.912,6.184 C12.912,5.88 13.152,5.648 13.448,5.648 Z M8.648,-3.33955086e-13 C8.952,-3.33955086e-13 9.184,0.24 9.184,0.536 C9.184,0.84 8.944,1.072 8.648,1.072 L8.648,1.072 L1.24,1.072 C1.144,1.072 1.072,1.144 1.072,1.24 L1.072,1.24 L1.072,10.64 C1.072,10.736 1.144,10.808 1.24,10.808 L1.24,10.808 L10.632,10.808 C10.728,10.808 10.8,10.736 10.8,10.64 L10.8,10.64 L10.8,7.24 C10.8,6.936 11.04,6.704 11.336,6.704 C11.64,6.704 11.8720847,6.944 11.8720847,7.24 L11.8720847,7.24 L11.8720847,10.632 C11.88,11.32 11.32,11.88 10.632,11.8720847 L10.632,11.8720847 L1.24,11.8720847 C0.552,11.8720847 7.10542736e-15,11.32 7.10542736e-15,10.632 L7.10542736e-15,10.632 L7.10542736e-15,1.24 C7.10542736e-15,0.552 0.552,-3.33955086e-13 1.24,-3.33955086e-13 L1.24,-3.33955086e-13 Z M12.768,0.976 C12.976,0.76 13.32,0.744 13.528,0.952 C13.744,1.16 13.76,1.504 13.552,1.712 L13.552,1.712 L7.784,7.8 C7.56,8.04 7.248,8.176 6.904,8.184 L6.904,8.184 L6.88,8.184 C6.552,8.184 6.24,8.048 6,7.816 L6,7.816 L3.344,5.152 C3.136,4.936 3.136,4.6 3.344,4.392 C3.44,4.288 3.584,4.232 3.72,4.232 C3.856,4.232 3.992,4.288 4.096,4.392 L4.096,4.392 L6.76,7.056 C6.8,7.088 6.84,7.104 6.888,7.104 C6.936,7.104 6.976,7.08 7.016,7.056 L7.016,7.056 Z" id="形状结合" fill="#666666"></path>
                    </g>
                </g>
            </g>
        </g>
    </g>
</svg>