<?xml version="1.0" standalone="no"?><!DOCTYPE svg PUBLIC "-//W3C//DTD SVG 1.1//EN" "http://www.w3.org/Graphics/SVG/1.1/DTD/svg11.dtd"><svg t="1632719254976" class="icon" viewBox="0 0 1024 1024" version="1.1" xmlns="http://www.w3.org/2000/svg" p-id="5372" xmlns:xlink="http://www.w3.org/1999/xlink" width="20" height="20"><defs><style type="text/css"></style></defs><path d="M307.2 102.4h409.6c136.5504 0 204.8 68.2496 204.8 204.8v409.6c0 136.5504-68.2496 204.8-204.8 204.8H307.2c-136.5504 0-204.8-68.2496-204.8-204.8V307.2c0-136.5504 68.2496-204.8 204.8-204.8z" fill="#FFA600" p-id="5373"></path><path d="M345.6 281.6v460.8h-76.8v-460.8z" fill="#FFFFFF" p-id="5374"></path><path d="M345.6 640v102.4h-76.8v-102.4z" fill="#F75555" p-id="5375"></path><path d="M499.2 281.6v460.8h-76.8v-460.8h76.8z m153.6 0v460.8h-76.8v-460.8h76.8z m153.6 153.6v153.6h-76.8v-153.6h76.8z" fill="#FFFFFF" p-id="5376"></path></svg>