<?xml version="1.0" encoding="UTF-8"?>
<svg width="14px" height="14px" viewBox="0 0 14 14" version="1.1" xmlns="http://www.w3.org/2000/svg" xmlns:xlink="http://www.w3.org/1999/xlink">
    <title>编组 6@1x</title>
    <g id="Data-Modele" stroke="none" stroke-width="1" fill="none" fill-rule="evenodd">
        <g id="7.1-API-Monitor-" transform="translate(-1257.000000, -266.000000)">
            <g id="表格" transform="translate(108.000000, 204.000000)">
                <g id="Variant" transform="translate(1021.000000, 13.000000)">
                    <g id="操作按钮备份-7" transform="translate(0.000000, 46.000000)">
                        <g id="操作/禁用/蓝色" transform="translate(128.000000, 0.000000)">
                            <g id="编组-6" transform="translate(0.000000, 3.000000)">
                                <rect id="矩形" fill="#D8D8D8" opacity="0.100000001" x="0" y="0" width="14" height="14"></rect>
                                <path d="M7,5.32907052e-14 C10.8666667,5.32907052e-14 14,3.13333333 14,7 C14,10.8666667 10.8666667,14 7,14 C3.13333333,14 5.32907052e-14,10.8666667 5.32907052e-14,7 C5.32907052e-14,3.13333333 3.13333333,5.32907052e-14 7,5.32907052e-14 Z M7,1.13196189 C3.76743164,1.13196189 1.13196189,3.76743164 1.13196189,7 C1.13196189,10.2325684 3.76743164,12.8680381 7,12.8680381 C10.2325684,12.8680381 12.8680381,10.2325684 12.8680381,7 C12.8680381,3.76743164 10.2325684,1.13196189 7,1.13196189 Z M9.71111111,3.75555556 C9.84444444,3.62222222 10.0666667,3.62222222 10.2,3.75555556 L10.2,3.75555556 L10.2222222,3.77777778 C10.3555556,3.93333333 10.529836,4.1922736 10.3965027,4.32560694 L10.3965027,4.32560694 L7.77759241,7 L10.3965027,9.71111111 C10.529836,9.86666667 10.3555556,10.0666667 10.2222222,10.2 L10.2222222,10.2 L10.2,10.2222222 C10.0666667,10.3555556 9.84444444,10.3555556 9.71111111,10.2222222 L9.71111111,10.2222222 L7,7.75824785 L4.28888889,10.4671982 C4.15555556,10.6005316 3.91111111,10.4725378 3.77777778,10.3392045 L3.77777778,10.3392045 L3.67076617,10.2444444 C3.53743284,10.0888889 3.64444444,9.84444444 3.77777778,9.71111111 L3.77777778,9.71111111 L6.33893351,7 L3.77777778,4.50410402 C3.64444444,4.34854847 3.57515981,4.00403615 3.70849315,3.87070282 L3.70849315,3.87070282 L3.70849315,3.85063992 C3.84182648,3.71730659 4.15555556,3.64444444 4.28888889,3.77777778 L4.28888889,3.77777778 L7.00444444,6.11483866 Z" id="形状结合" fill="#2684FC" fill-rule="nonzero"></path>
                            </g>
                        </g>
                    </g>
                </g>
            </g>
        </g>
    </g>
</svg>