<?xml version="1.0" standalone="no"?><!DOCTYPE svg PUBLIC "-//W3C//DTD SVG 1.1//EN" "http://www.w3.org/Graphics/SVG/1.1/DTD/svg11.dtd"><svg t="1633748640790" class="icon" viewBox="0 0 1024 1024" version="1.1" xmlns="http://www.w3.org/2000/svg" p-id="3462" width="12" height="12" xmlns:xlink="http://www.w3.org/1999/xlink"><defs><style type="text/css"></style></defs><path d="M588.996923 524.721231L994.934154 118.784a53.169231 53.169231 0 0 0 0-74.791385l-2.205539-2.205538a53.169231 53.169231 0 0 0-74.752 0L512 448.315077 106.023385 41.747692a53.169231 53.169231 0 0 0-74.752 0l-2.244923 2.205539a52.145231 52.145231 0 0 0 0 74.791384l405.976615 405.937231L29.065846 930.697846a53.169231 53.169231 0 0 0 0 74.791385l2.205539 2.205538c20.48 20.48 54.272 20.48 74.752 0L512 601.718154l405.976615 405.976615c20.48 20.48 54.272 20.48 74.752 0l2.205539-2.205538a53.169231 53.169231 0 0 0 0-74.791385L588.996923 524.721231z" p-id="3463" fill="#555555"></path></svg>