<?xml version="1.0" standalone="no"?><!DOCTYPE svg PUBLIC "-//W3C//DTD SVG 1.1//EN" "http://www.w3.org/Graphics/SVG/1.1/DTD/svg11.dtd"><svg t="1633751213542" class="icon" viewBox="0 0 1096 1024" version="1.1" xmlns="http://www.w3.org/2000/svg" p-id="4025" xmlns:xlink="http://www.w3.org/1999/xlink" width="14" height="14"><defs><style type="text/css"></style></defs><path d="M860.549064 215.777175c20.477075 0 37.004999 16.527925 37.005 36.931867v734.17626a37.004999 37.004999 0 0 1-74.009999 0V252.709042c0-20.403942 16.527925-37.004999 37.004999-37.005z m-358.202542 0c20.477075 0 37.004999 16.527925 37.004999 36.931867v734.17626a37.004999 37.004999 0 0 1-74.009998 0V252.709042c0-20.403942 16.527925-37.004999 37.004999-37.005z m-343.429796 0c20.477075 0 37.004999 16.527925 37.004999 36.931867v734.17626a37.004999 37.004999 0 0 1-74.009998 0V252.709042c0-20.403942 16.601057-37.004999 37.004999-37.005zM860.549064 0.036566a77.812884 77.812884 0 1 1 0 155.552636 77.812884 77.812884 0 0 1 0-155.552636zM502.346522 0.036566a77.812884 77.812884 0 1 1 0 155.552636 77.812884 77.812884 0 0 1 0-155.552636zM158.916726 0.036566a77.812884 77.812884 0 1 1 0 155.552636 77.812884 77.812884 0 0 1 0-155.552636z" p-id="4026" fill="#2684FC"></path></svg>