<svg t="1634536864083" class="icon" viewBox="0 0 1024 1024" version="1.1" xmlns="http://www.w3.org/2000/svg" p-id="3834" width="24" height="24">
    <path d="M950.826667 837.802667h-0.512a13.226667 13.226667 0 0 1 0.512 3.626666c0 39.850667-194.944 109.056-438.826667 109.056S73.130667 881.28 73.130667 841.386667c0-1.237333 0.170667-2.474667 0.512-3.626667h-0.512v-124.074667A934.997333 934.997333 0 0 0 512 802.133333c151.296 6.485333 301.909333-23.893333 438.826667-88.448v124.074667zM512 72.661333c243.882667 0 438.826667 69.205333 438.826667 109.013334 0 39.850667-194.944 109.056-438.826667 109.056S73.130667 221.525333 73.130667 181.674667c0-39.808 194.986667-108.970667 438.869333-108.970667v-0.042667z m438.869333 547.669334c0 39.850667-194.986667 109.056-438.869333 109.056-243.882667 0-438.869333-69.077333-438.869333-109.056 0-1.237333 0.170667-2.432 0.512-3.626667h-0.512v-124.245333A934.357333 934.357333 0 0 0 512 581.077333a934.357333 934.357333 0 0 0 438.869333-88.618666v124.416h-0.554666a12.416 12.416 0 0 1 0.554666 3.669333v-0.213333z m0-221.056c0 39.893333-194.986667 109.013333-438.869333 109.013333-243.882667 0-438.869333-68.992-438.869333-108.885333 0-1.28 0.213333-2.474667 0.512-3.669334h-0.512v-120.746666A936.106667 936.106667 0 0 0 512 363.434667a936.106667 936.106667 0 0 0 438.869333-88.448v120.832h-0.554666a13.013333 13.013333 0 0 1 0.554666 3.626666v-0.170666z m72.661334-220.928C1018.538667 79.616 791.594667 0 512 0 232.405333 0 5.418667 79.701333 0.426667 178.474667H0v663.168c0 100.309333 229.248 181.589333 512 181.589333s512-81.28 512-181.674667V178.474667h-0.426667V178.346667z" p-id="3835" fill="#2684FC"></path>
</svg>