<svg t="1638170537105" class="icon" viewBox="0 0 1024 1024" version="1.1" xmlns="http://www.w3.org/2000/svg" p-id="3971" width="12" height="12">
    <path d="M535.007986 0.00064a205.663871 205.663871 0 0 0-205.823872 198.655876H114.112249C85.216267 198.656516 64.00028 205.600511 64.00028 234.560493c0 28.735982 21.023987 39.231975 50.111969 39.231976h18.687988V881.920089c0 94.527941 43.679973 142.047911 136.127915 142.047911h537.919664c109.663931 0 137.727914-55.583965 137.727914-142.079911l-1.375999-608.12762h26.015983c28.895982 0 50.399969-10.303994 50.399969-39.231976 0-28.799982-41.503974-35.647978-70.527956-35.647977h-208.63987A205.055872 205.055872 0 0 0 535.039986 0.00064z m-133.791917 204.255872c4.799997-76.607952 66.239959-137.567914 136.511915-137.567914 70.175956 0 132.383917 61.119962 136.383915 137.567914h-272.89583zM195.392198 887.040086V273.056469h681.279574v614.079617c0 59.839963-29.695981 66.975958-62.399961 66.975958H269.056152c-43.519973 0-73.663954-6.975996-73.663954-66.879959v-0.159999z m175.77589-87.583946c18.719988 0 34.143979-14.335991 34.143979-43.967972v-303.295811c0-29.535982-15.29599-42.367974-34.143979-42.367973-18.687988 0-34.111979 12.799992-34.111979 42.367973v303.295811c0 29.343982 15.039991 43.967973 34.111979 43.967972z m157.279902-3.743997c18.719988 0 34.143979-10.655993 34.143978-40.287975v-303.135811c0-29.567982-15.29599-42.687973-34.143978-42.687973-18.687988 0-34.111979 13.119992-34.111979 42.687973v303.263811c0 29.375982 15.42399 40.223975 34.111979 40.223975v-0.064z m165.407896-0.704c18.687988 0 34.143979-9.951994 34.143979-39.583975v-303.135811c0-29.567982-15.29599-42.463973-34.143979-42.463973-18.719988 0-34.143979 12.895992-34.143978 42.463973v303.263811c0 29.375982 14.879991 39.519975 34.143978 39.519975v-0.064z" p-id="3972" fill="#2684FC"></path>
</svg>