<?xml version="1.0" standalone="no"?><!DOCTYPE svg PUBLIC "-//W3C//DTD SVG 1.1//EN" "http://www.w3.org/Graphics/SVG/1.1/DTD/svg11.dtd"><svg t="1631345440814" class="icon" viewBox="0 0 1024 1024" version="1.1" xmlns="http://www.w3.org/2000/svg" p-id="2231" xmlns:xlink="http://www.w3.org/1999/xlink" width="200" height="200"><defs><style type="text/css"></style></defs><path d="M305.005714 595.181714h44.598857v-98.816c0-9.728 7.862857-17.865143 17.865143-17.865143h126.665143v-49.92h-44.690286c-9.728 0-12.617143-0.365714-12.617142-10.349714v-126.902857c0-9.728 2.633143-12.8 12.617142-12.8h126.957715c9.728 0 10.752 2.797714 10.752 12.8v126.902857c0 9.728-0.768 10.605714-10.752 10.605714h-46.537143v49.92h126.665143c9.728 0 17.865143 7.881143 17.865143 17.865143v98.56h44.672c9.728 0 12.105143 4.114286 12.105142 14.08v125.677715c0 9.728-2.121143 10.550857-12.105142 10.550857h-125.915429c-9.728 0-12.306286-0.548571-12.306286-10.550857V609.28c0-9.728 2.304-14.098286 12.306286-14.098286h45.769143v-80.950857H385.097143v80.950857h46.555428c9.728 0 11.52 0.969143 11.52 10.953143v128.804572c0 8.411429-2.797714 10.550857-11.52 10.550857H305.005714c-9.728 0-12.16-0.548571-12.16-10.550857v-128.804572c0-7.424 2.102857-10.971429 12.16-10.971428z m250.258286-284.781714H468.48v86.802286h86.784v-86.802286z m143.725714 316.397714h-86.765714v86.802286h86.784v-86.802286z m-288.475428 0h-86.784v86.802286h86.784v-86.802286z" fill="#ffffff" p-id="2232"></path></svg>