<svg t="1633921716728" class="icon" viewBox="0 0 1024 1024" version="1.1" xmlns="http://www.w3.org/2000/svg" p-id="11801" width="14" height="14">
    <path d="M512 0C228.425143 0 0 228.425143 0 512s228.425143 512 512 512 512-228.425143 512-512-228.425143-512-512-512z m0 78.774857c102.4 0 196.900571 35.474286 267.849143 94.500572l-606.573714 606.573714C114.249143 708.900571 78.774857 614.4 78.774857 512A431.981714 431.981714 0 0 1 512 78.774857z m0 866.450286c-110.299429 0-208.749714-39.350857-283.574857-106.349714l610.450286-610.450286c66.998857 74.825143 106.349714 173.348571 106.349714 283.574857A431.981714 431.981714 0 0 1 512 945.225143z" p-id="11802"></path>
</svg>