<?xml version="1.0" encoding="UTF-8"?>
<svg width="14px" height="14px" viewBox="0 0 14 14" version="1.1" xmlns="http://www.w3.org/2000/svg" xmlns:xlink="http://www.w3.org/1999/xlink">
    <title>图标/导出@1x</title>
    <g id="Data-Modele" stroke="none" stroke-width="1" fill="none" fill-rule="evenodd">
        <g id="7.1-API-Monitor-" transform="translate(-1130.000000, -313.000000)">
            <g id="表格" transform="translate(108.000000, 204.000000)">
                <g id="Variant" transform="translate(1021.000000, 13.000000)">
                    <g id="操作按钮备份-7" transform="translate(0.000000, 93.000000)">
                        <g id="操作/编辑/蓝色" transform="translate(1.000000, 0.000000)">
                            <g id="图标/导出" transform="translate(0.000000, 3.000000)">
                                <rect id="矩形" fill-opacity="0" fill="#F57171" x="0" y="0" width="14" height="14"></rect>
                                <path d="M7.31887606,1 C7.66610262,1 7.947587,1.28148438 7.947587,1.62871094 L7.947587,1.62871094 C7.9485245,1.97933594 7.6672745,2.26234375 7.31934481,2.26328125 L7.31934481,2.26328125 L7.31887606,2.26328125 L2.26340731,2.2609375 L2.26340731,11.7367188 L11.7371964,11.7367188 L11.7371964,6.68089844 C11.7371964,6.33367188 12.0186807,6.0521875 12.3659073,6.0521875 L12.3659073,6.0521875 C12.7165323,6.05148438 12.9991886,6.33296875 13.0000044,6.68089844 L13.0000044,6.68089844 L13.0000044,12.3709375 C13.0006744,12.537106 12.9352434,12.6967206 12.8181339,12.8146094 C12.6997125,12.9323819 12.5397172,12.9988467 12.3727042,12.9996537 L12.3727042,12.9996537 L1.62825106,12.9996537 C1.4622171,13.0003315 1.30274174,12.9348884 1.18504794,12.8177734 C1.06727542,12.6993521 1.00081063,12.5393567 1.00000441,12.3723438 L1.00000441,12.3723438 L1.00000441,1.62824219 C0.999381582,1.46225357 1.06481859,1.30283519 1.18188387,1.18515625 C1.29990694,1.06670208 1.46021583,1 1.62743075,1 L1.62743075,1 Z M11.6241104,1.35589844 C11.8695011,1.10921875 12.2684073,1.10828125 12.515087,1.35378906 L12.515087,1.35378906 C12.7637589,1.60257813 12.7637589,2.00253906 12.5171964,2.24921875 L12.5171964,2.24921875 L5.61942294,9.14570313 C5.37368075,9.39203125 4.9747745,9.39238281 4.72844637,9.14652344 L4.72844637,9.14652344 C4.48118075,8.89902344 4.48118075,8.4990625 4.72762606,8.25238281 L4.72762606,8.25238281 Z" id="形状结合" fill="#999999" fill-rule="nonzero"></path>
                            </g>
                        </g>
                    </g>
                </g>
            </g>
        </g>
    </g>
</svg>