<?xml version="1.0" encoding="UTF-8"?>
<svg width="320px" height="230px" viewBox="0 0 320 230" version="1.1" xmlns="http://www.w3.org/2000/svg" xmlns:xlink="http://www.w3.org/1999/xlink">
    <title>缺省页-暂无记录-1@1x</title>
    <defs>
        <rect id="path-1" x="0" y="0" width="320" height="230"></rect>
        <linearGradient x1="49.9999076%" y1="100.000235%" x2="49.9999076%" y2="0.000652077519%" id="linearGradient-3">
            <stop stop-color="#FFFFFF" offset="5.358273e-05%"></stop>
            <stop stop-color="#F0F7FF" offset="100%"></stop>
        </linearGradient>
        <linearGradient x1="50.00062%" y1="43.6408647%" x2="50.00062%" y2="-0.00113597637%" id="linearGradient-4">
            <stop stop-color="#FFFFFF" offset="0%"></stop>
            <stop stop-color="#EFF6FF" offset="100%"></stop>
        </linearGradient>
        <linearGradient x1="64.988704%" y1="58.9293296%" x2="33.9061956%" y2="32.9730402%" id="linearGradient-5">
            <stop stop-color="#FFFFFF" offset="0%"></stop>
            <stop stop-color="#D6E6FB" offset="100%"></stop>
        </linearGradient>
        <linearGradient x1="65.4973335%" y1="98.4449344%" x2="17.9048798%" y2="1.30022049%" id="linearGradient-6">
            <stop stop-color="#FFFFFF" stop-opacity="0" offset="0%"></stop>
            <stop stop-color="#9DB9E0" offset="100%"></stop>
        </linearGradient>
    </defs>
    <g id="6.SQLeditor" stroke="none" stroke-width="1" fill="none" fill-rule="evenodd">
        <g id="6.1-SQLeditor-默认" transform="translate(-735.000000, -304.000000)">
            <g id="缺省页-暂无记录-1" transform="translate(735.000000, 304.000000)">
                <mask id="mask-2" fill="white">
                    <use xlink:href="#path-1"></use>
                </mask>
                <use id="矩形" fill="#FFFFFF" opacity="0" xlink:href="#path-1"></use>
                <path d="M253.508748,61.8487214 L253.508748,205.120861 L67,205.120861 C67.3100942,133.872409 67.5986541,122.915747 67.9130552,51.6414536 L109.68533,51.6414536 C109.762853,64.3510094 109.762853,69.8724092 109.68533,70.0791386 L109.68533,70.1049798 C109.68533,70.1049798 109.737012,70.0791386 109.762853,70.0532974 L109.762853,69.9757739 C109.762853,66.2244953 112.781965,63.2053836 116.533244,63.2053836 C120.284522,63.2053836 123.303634,66.2244953 123.303634,69.9757739 L123.303634,73.9854643 L153.145895,73.9854643 L153.145895,40 L179.917362,40 L179.917362,88.9862719 C179.891521,89.0896366 179.891521,89.1671602 179.891521,89.2748318 L179.891521,105.757201 C179.891521,108.177658 181.84253,110.132974 184.267295,110.132974 C186.661911,110.132974 188.617227,108.181965 188.617227,105.757201 L188.617227,92.9184388 C197.028533,92.8925976 203.122746,92.8667564 207.158277,92.8667564 C211.193809,92.8667564 213.174966,92.8925976 213.355855,92.9184388 C214.006191,92.8409152 213.355855,82.9695828 213.355855,82.9695828 L226.091252,82.9695828 L226.091252,94.6627187 C226.091252,96.4328398 227.525437,97.8670256 229.295559,97.8670256 C231.06568,97.8670256 232.499865,96.4328398 232.499865,94.6627187 L232.499865,61.8487214 L253.508748,61.8487214 L253.508748,61.8487214 Z" id="路径" fill="url(#linearGradient-3)" fill-rule="nonzero" mask="url(#mask-2)"></path>
                <ellipse id="椭圆形" fill="url(#linearGradient-4)" fill-rule="nonzero" mask="url(#mask-2)" cx="159.776043" cy="201.826649" rx="159.776043" ry="75.8266487"></ellipse>
                <polygon id="路径" fill="url(#linearGradient-5)" fill-rule="nonzero" mask="url(#mask-2)" points="262 193.360208 186.127808 231.422974 110.9984 155.297443 203.814941 155.297443"></polygon>
                <polygon id="路径" fill="url(#linearGradient-6)" fill-rule="nonzero" mask="url(#mask-2)" points="107.730552 212.099327 87.1394347 217.853297 76.2387618 182.20969 82.5095559 180.74105"></polygon>
                <g id="编组" mask="url(#mask-2)">
                    <g transform="translate(72.246299, 119.096904)">
                        <path d="M6.8909825,3.76419919 C6.14589502,3.76419919 5.53862719,4.41884253 5.53862719,5.22853297 L5.53862719,9.73351279 C5.53862719,10.5432032 6.14158816,11.1978466 6.8909825,11.1978466 C7.64037685,11.1978466 8.24333782,10.5432032 8.24333782,9.73351279 L8.24333782,5.22853297 C8.23903096,4.41884253 7.63606999,3.76419919 6.8909825,3.76419919 Z" id="圆角矩形-5_10_" fill="#F5986A" fill-rule="evenodd"></path>
                        <path d="M8.69125168,1.28344549 C6.27940781,1.11978466 5.9090175,2.72624495 5.97362046,3.96231494 C5.84441454,3.85464334 5.68506057,3.7512786 5.53862719,3.75989233 C5.03903096,3.79004038 5.08640646,4.43606999 5.08640646,4.43606999 C5.08640646,4.43606999 5.0218035,4.70309556 5.31036339,5.11224764 C5.52570659,5.42234186 6.12866756,5.67213997 6.3526245,5.75827725 L6.43876178,6.0166891 C6.43876178,6.0166891 6.79623149,6.77900404 7.11493943,7.14078062 C7.5628533,7.65329744 7.79111709,7.81695828 7.79111709,7.81695828 C7.79111709,7.81695828 8.2218035,8.14858681 8.69125168,8.269179 C9.12193809,8.37685061 9.59138627,8.269179 9.59138627,8.269179 C9.59138627,8.269179 10.1598923,8.20026918 10.2675639,7.36904441 C10.3321669,6.85652759 10.3580081,6.21480485 10.3580081,5.57738896 L10.3580081,5.41803499 C10.3493943,4.20780619 10.2675639,3.08802153 10.2675639,3.08802153 C10.2675639,3.08802153 10.1254374,1.38250336 8.69125168,1.28344549 Z" id="Combined-shape-564_10_" fill="#F8AD72" fill-rule="evenodd"></path>
                        <path d="M7.79111709,3.31197847 C7.79111709,3.31197847 9.2640646,3.59192463 10.043607,3.31197847 C10.8403769,3.02772544 10.9437416,2.18788694 10.9437416,2.18788694 C10.9437416,2.18788694 10.9652759,1.55908479 10.7197847,1.06379542 C10.5259758,0.671870794 10.043607,0.387617766 10.043607,0.387617766 C10.043607,0.387617766 9.63445491,0.0861372813 9.14347241,0.163660834 C8.75154778,0.223956931 8.46729475,0.615881561 8.46729475,0.615881561 C8.46729475,0.615881561 7.95477793,1.12409152 7.56716016,1.29205922 C7.1666218,1.46433378 6.66702557,1.29205922 6.66702557,1.29205922 C6.66702557,1.29205922 5.88317631,1.11117093 5.31467026,1.74427995 C4.45329744,2.70471063 4.6384926,3.99676985 4.6384926,3.99676985 C4.6384926,3.99676985 4.78061911,4.83660834 5.09071332,5.5730821 C5.34051144,6.17604307 5.76689098,6.47321669 5.76689098,6.47321669 C5.76689098,6.47321669 5.99084791,6.63687752 6.21911171,6.47321669 C6.47321669,6.28802153 6.21911171,6.02099596 6.21911171,6.02099596 L5.99515478,5.56877524 C5.99515478,5.56877524 5.10794078,5.56877524 5.09502019,4.21641992 C5.09071332,3.99246299 5.54724092,3.99246299 5.54724092,3.99246299 C5.54724092,3.99246299 5.80565276,3.98815612 5.99946164,4.21641992 C6.10713324,4.34131898 6.22341857,4.89259758 6.22341857,4.89259758 C6.22341857,4.89259758 6.31816958,3.79434724 6.6756393,3.54024226 C7.08909825,3.23445491 7.79111709,3.31197847 7.79111709,3.31197847 Z" id="形状-17_10_" fill="#000000" fill-rule="nonzero"></path>
                        <path d="M1.76581427,56.458681 L0.426379542,58.5432032 L6.10713324,62.1997308 C6.10713324,62.1997308 6.56366083,61.6053836 6.27079408,60.6966353 C5.97792732,59.7878869 4.62126514,59.0987887 4.62126514,59.0987887 C4.62126514,59.0987887 4.16473755,58.83607 3.98384926,58.422611 C3.84602961,58.1039031 3.85033647,57.7981157 3.85033647,57.7981157 L1.76581427,56.458681 Z" id="形状-30-拷贝_10_" fill="#262A71" fill-rule="evenodd"></path>
                        <path d="M12.0678331,30.3418573 L13.1919246,41.3803499 C13.1919246,41.3803499 13.2393001,41.7162853 13.1919246,42.0565276 C13.1273217,42.4958277 12.9679677,42.9566622 12.9679677,42.9566622 L4.85814266,58.4958277 L2.15343203,56.6955585 C2.15343203,56.6955585 3.94939435,49.3911171 5.53001346,45.433109 C6.1846568,43.7921938 7.78250336,42.7283984 7.78250336,42.7283984 C7.78250336,42.7283984 5.69367429,38.7359354 4.62987887,35.0707941 C4.05706595,33.1025572 4.17765814,30.3418573 4.17765814,30.3418573 L12.0678331,30.3418573 L12.0678331,30.3418573 Z" id="形状-34_4_" fill="#151145" fill-rule="evenodd"></path>
                        <path d="M10.043607,29.8896366 C10.043607,29.8896366 9.83687752,36.7763122 9.14347241,43.628533 C8.2820996,52.1388964 6.8909825,60.9722746 6.8909825,60.9722746 L4.41453567,60.9722746 C4.41453567,60.9722746 3.19569314,52.8064603 3.06218035,47.2333782 C2.98034993,43.7318977 3.73835801,41.8282638 3.73835801,41.8282638 C3.73835801,41.8282638 2.96312248,38.4602961 2.38600269,35.0707941 C1.97685061,32.6632571 1.93378197,29.8896366 1.93378197,29.8896366 L10.043607,29.8896366 Z" id="形状-29-拷贝_4_" fill="#27327B" fill-rule="evenodd"></path>
                        <path d="M4.4102288,60.9722746 L4.4102288,63.4487214 L11.1676985,63.4487214 C11.1676985,63.4487214 11.2323015,62.7036339 10.4915209,62.0963661 C9.75504711,61.4934051 8.23903096,61.6441454 8.23903096,61.6441454 C8.23903096,61.6441454 7.71359354,61.6699865 7.33889637,61.4201884 C7.05033647,61.2263795 6.88667564,60.9679677 6.88667564,60.9679677 L4.4102288,60.9679677 L4.4102288,60.9722746 Z" id="形状-30_10_" fill="#2B3682" fill-rule="evenodd"></path>
                        <path d="M15.840646,16.9690444 C15.840646,16.9690444 16.917362,16.5814266 17.3738896,16.5340511 C17.7485868,16.4952894 17.3523553,17.0379542 17.3523553,17.0379542 C17.3523553,17.0379542 17.4987887,17.1628533 17.8562584,17.0594886 C18.0113055,17.0164199 18.4635262,16.7493943 18.5798116,16.6890983 C18.7693136,16.5857335 18.8855989,16.602961 18.8855989,16.602961 C18.8855989,16.602961 19.7900404,16.7149394 19.1267833,18.0242261 C18.756393,18.7520861 16.4349933,19.6177658 16.4349933,19.6177658 L15.840646,16.9690444 Z" id="形状-26-拷贝_3_" fill="#F48D67" fill-rule="evenodd"></path>
                        <path d="M11.4562584,12.0161507 L9.36312248,18.2998654 L15.745895,16.8312248 L16.3144011,19.484253 L7.19676985,22.0166891 C7.19676985,22.0166891 6.7833109,21.9908479 6.52059219,21.797039 C6.24064603,21.5903096 6.10713324,21.2156124 6.10713324,21.2156124 L5.21130552,17.4858681 L11.4562584,12.0161507 Z" id="形状-31_2_" fill="#B0D0FF" fill-rule="evenodd"></path>
                        <path d="M12.0678331,12.769852 L12.0678331,30.3375505 L0.805303037,30.3375505 L0.805303037,12.9938089 C0.805303037,12.9938089 0.788156124,12.1410498 1.25760431,11.4174966 C1.71843876,10.7068641 2.60995962,10.2934051 2.60995962,10.2934051 L5.05625841,8.97550471 L5.53432032,8.71709287 C5.53432032,8.71709287 5.58169583,8.84199192 5.66783311,9.02288022 C5.78411844,9.25114401 5.96931359,9.57415882 6.21049798,9.84118439 C6.77469717,10.4699865 7.5628533,10.9695828 7.5628533,10.9695828 C7.5628533,10.9695828 7.86864065,10.8102288 8.01507402,10.517362 C8.13135935,10.2847914 8.18734859,9.99192463 8.21749664,9.80242261 L8.21749664,9.79380888 C8.23472409,9.68613728 8.23903096,9.61722746 8.23903096,9.61722746 C8.23903096,9.61722746 8.41561238,9.63445491 8.69125168,9.69044415 C9.25545087,9.80242261 10.2288022,10.0823688 10.9394347,10.741319 C11.912786,11.6414536 12.0678331,12.769852 12.0678331,12.769852 Z" id="路径" fill="#B0D0FF" fill-rule="evenodd"></path>
                        <path d="M5.99946164,8.20457604 C5.99946164,8.20457604 5.97362046,7.0589502 6.0769852,6.6153432 C6.15881561,6.24495289 6.54643338,6.79623149 6.54643338,6.79623149 C6.54643338,6.79623149 6.71009421,6.69717362 6.72732167,6.32678331 C6.7359354,6.16742934 6.6282638,5.65491252 6.60672948,5.52570659 C6.57227456,5.31467026 6.62395693,5.20699865 6.62395693,5.20699865 C6.62395693,5.20699865 7.01588156,4.38438762 8.04952894,5.43526245 C8.62234186,6.0166891 8.69986541,8.4974428 8.69986541,8.4974428 L5.99946164,8.20457604 Z" id="形状-26_10_" fill="#EF8D61" fill-rule="evenodd"></path>
                        <path d="M8.79892328,8.41561238 L8.69125168,9.69044415 L8.51467026,11.7749664 L8.51467026,11.7835801 L7.96339166,18.4161507 C7.96339166,18.4290713 7.95908479,18.756393 7.58438762,19.0234186 C7.37765814,19.1655451 6.92113055,19.2775236 6.92113055,19.2775236 L0.80538358,20.6600269 L0.80538358,16.6890983 L4.66864065,16.1722746 L5.43095559,10.7111709 L5.66783311,9.02288022 L5.77119785,8.27779273 L8.79892328,8.41561238 Z" id="路径" fill="#7FB5F7" fill-rule="evenodd"></path>
                    </g>
                </g>
                <g id="缺省" mask="url(#mask-2)" fill-rule="nonzero">
                    <g transform="translate(67.000000, 22.000000)">
                        <rect id="矩形" fill="#000000" opacity="0" x="0" y="0" width="180" height="180"></rect>
                        <polygon id="路径" fill="#A2C8F9" points="139.851563 130.134375 105.46875 160.3125 104.23125 101.896875 140.79375 80.2125"></polygon>
                        <path d="M104.371875,159.707813 L40.21875,140.976563 L40.21875,119.292188 L94.303125,135.210938 C97.8609375,110.25 100.814062,100.504688 102.979687,105.764063 C105.145313,111.023438 105.609375,129.023438 104.385938,159.707813 L104.371875,159.707813 Z M103.44375,100.96875 L86.23125,97.228125 L85.1203125,85.0078125 L85.1203125,64.2375 L139.064063,79.284375 L140.90625,79.284375 L103.44375,100.96875 Z" id="形状" fill="#A2C8F9"></path>
                        <polygon id="路径" fill="#BFD9FB" points="86.23125 98.015625 41.428125 85.5984375 86.23125 63.9140625"></polygon>
                        <polygon id="路径" fill="#BFD9FB" points="154.434375 108.717188 141.285937 81.9140625 141.285937 105.173438"></polygon>
                        <path d="M86.090625,98.803125 C85.879422,98.8111036 85.6744491,98.7307001 85.5249995,98.5812505 C85.3755499,98.4318009 85.2951464,98.226828 85.303125,98.015625 L85.303125,65.4890625 C85.303125,65.0541383 85.6557008,64.7015625 86.090625,64.7015625 C86.5255492,64.7015625 86.878125,65.0541383 86.878125,65.4890625 L86.878125,98.015625 C86.8819795,98.2256409 86.8002493,98.428192 86.6517206,98.5767206 C86.503192,98.7252493 86.3006409,98.8069795 86.090625,98.803125 L86.090625,98.803125 Z" id="路径" fill="#B6D3F8"></path>
                        <path d="M103.44375,102.810937 L103.303125,102.810937 L40.359375,86.709375 C40.0359375,86.56875 39.7679933,86.3859375 39.7679933,86.1046875 C39.7549571,85.7811481 39.9306644,85.479151 40.21875,85.33125 L85.95,63.45 C86.0087296,63.3834069 86.0932404,63.3452573 86.1820313,63.3452573 C86.2708221,63.3452573 86.3553329,63.3834069 86.4140625,63.45 L141.145313,78.6375 C141.465273,78.6819541 141.722088,78.9239638 141.78544,79.2407245 C141.848792,79.5574852 141.704813,79.8796537 141.426563,80.04375 L103.907813,102.65625 C103.767188,102.65625 103.584375,102.839062 103.44375,102.839062 L103.44375,102.810937 Z M42.8625,85.6546875 L103.33125,101.123437 L138.923438,79.6078125 L86.23125,64.884375 L42.8625,85.6546875 Z" id="形状" fill="#B6D3F8"></path>
                        <path d="M105.46875,161.423438 L105.145312,161.423438 C104.875684,161.34704 104.691067,161.098961 104.695312,160.81875 L102.65625,102.079688 C102.65625,101.75625 102.796875,101.475 102.979688,101.475 L140.498437,78.8625 C140.742091,78.7218267 141.042284,78.7218267 141.285937,78.8625 C141.536103,78.9685542 141.712268,79.198103 141.75,79.4671875 L141.75,130.457813 C141.719927,130.688235 141.604512,130.898994 141.426563,131.048438 L105.932813,161.423438 L105.46875,161.423438 Z M104.23125,102.360938 L106.073438,158.90625 L140.034375,129.9375 L140.034375,80.71875 L104.23125,102.360938 Z" id="形状" fill="#B6D3F8"></path>
                        <path d="M105.46875,161.423438 L105.328125,161.423438 L40.415625,142.495313 C40.0829006,142.36622 39.8497526,142.062585 39.8103955,141.707813 L39.8103955,119.109375 C39.8029589,118.898172 39.8833624,118.693199 40.032812,118.54375 C40.1822616,118.3943 40.3872345,118.313896 40.5984375,118.321875 C40.8084751,118.313597 41.012243,118.394396 41.1595323,118.544363 C41.3068216,118.69433 41.3839362,118.899521 41.371875,119.109375 L41.371875,141.257812 L104.779688,159.848438 L104.779688,159.707813 C104.779688,159.272888 105.132263,158.920313 105.567188,158.920313 C106.002112,158.920313 106.355275,159.272888 106.355275,159.707813 L106.355275,160.81875 C106.364916,161.064145 106.241045,161.29573 106.03125,161.423438 L105.46875,161.423438 Z" id="路径" fill="#B6D3F8"></path>
                        <polygon id="路径" fill="#EFF6FF" points="93.20625 135.070312 28.40625 115.228125 40.5 85.921875 103.44375 102.023438"></polygon>
                        <path d="M93.20625,135.857813 L93.065625,135.857813 L28.125,116.015625 C27.984375,116.015625 27.8015625,115.875 27.6609375,115.551563 C27.5225237,115.373762 27.5225237,115.124675 27.6609375,114.946875 L39.7546875,85.6546875 C39.8125825,85.4706942 39.9421508,85.3177774 40.1141417,85.230459 C40.2861325,85.1431405 40.4860458,85.128782 40.66875,85.190625 L103.626563,101.25 C103.818374,101.291196 103.985588,101.407739 104.090625,101.573438 C104.229039,101.751238 104.229039,102.000325 104.090625,102.178125 L93.8390625,135.39375 C93.8390625,135.675 93.515625,135.857813 93.20625,135.857813 L93.20625,135.857813 Z M29.334375,114.764063 L92.8125,134.142188 L102.65625,102.54375 L40.9640625,86.8921875 L29.334375,114.764063 Z M154.110938,110.292188 L153.970313,110.292188 L140.821875,106.551563 C140.489151,106.42247 140.256003,106.118835 140.217188,105.764063 L140.217188,79.284375 C140.217188,78.9609375 140.540625,78.6796875 140.821875,78.496875 C141.202449,78.4094444 141.5916,78.6040199 141.75,78.9609375 L154.898438,106.36875 L154.898438,109.4625 C154.913018,109.705157 154.787307,109.934716 154.575,110.053125 C154.484044,110.220509 154.300031,110.315304 154.110938,110.292188 L154.110938,110.292188 Z M141.69375,105.173438 L153.28125,108.576563 L153.28125,107.015625 L141.651563,82.828125 L141.69375,105.173438 Z" id="形状" fill="#BAD7FC"></path>
                        <path d="M154.6875,15.2296875 C153.576562,13.66875 146.010938,15.3703125 142.607812,20.503125 C141.679688,22.0640625 140.56875,26.859375 141.35625,25.7625 C143.38125,22.809375 147.079688,24.5109375 149.892188,22.2046875 C152.198438,20.221875 155.615625,16.48125 154.6875,15.1734375 L154.6875,15.2296875 Z" id="路径" fill="#F0F1F4"></path>
                        <path d="M141.384375,26.2687963 L141.060937,26.2687963 C140.273438,25.8046875 141.848437,21.3328125 142.3125,20.3625 C144.812324,16.9572768 148.630633,14.7622597 152.83125,14.315625 C153.596339,14.215933 154.359528,14.5127288 154.85625,15.103125 C156.2625,17.128125 150.201562,22.528125 150.060937,22.528125 C148.778671,23.5306157 147.202522,24.083997 145.575,24.103125 C144.014062,24.4265625 142.495312,24.553125 141.567187,25.9453125 C141.608607,26.0109692 141.610616,26.0940703 141.572418,26.1616519 C141.534219,26.2292335 141.461988,26.2703724 141.384375,26.2687963 L141.384375,26.2687963 Z M153.014062,14.9203125 C149.034225,15.2300699 145.39728,17.2906616 143.085937,20.5453125 C142.44726,21.8890984 141.975017,23.3058273 141.679687,24.7640625 C142.783985,23.7779678 144.207151,23.2236818 145.6875,23.203125 C147.132749,23.1171918 148.525462,22.6302294 149.709375,21.796875 C152.339062,19.490625 154.96875,16.171875 154.364062,15.4265625 C154.223437,15.159375 153.717187,14.9765625 152.957812,14.9765625 L153.014062,14.9203125 Z" id="形状" fill="#A2C8F9"></path>
                        <path d="M145.265625,22.3875 L144.660937,21.9234375 C147.473437,18.3796875 150.707812,15.553125 157.528125,13.7109375 C158.132812,13.5703125 158.45625,13.3875 158.639062,13.3875 C158.821875,13.3875 158.9625,13.246875 159.890625,13.246875 L160.03125,14.034375 C159.667971,14.1259209 159.294944,14.1731396 158.920312,14.175 C158.544827,14.2641769 158.174049,14.3721249 157.809375,14.4984375 C151.115625,16.1578125 147.965625,18.7171875 145.265625,22.3875 L145.265625,22.3875 Z M150.46875,26.2546875 C155.854687,34.903125 155.995312,45.084375 150.834375,50.6953125 C148.967875,52.5159012 146.759942,53.9496243 144.3375,54.9140625 C145.096875,50.90625 144.1125,45.9421875 142.25625,43.4390625 C141.696488,42.5455996 140.779534,41.9360041 139.739062,41.765625 C138.117199,41.6758671 136.549873,42.3654903 135.520312,43.621875 C133.645668,45.1942719 132.606716,47.547499 132.707812,49.9921875 C133.002941,52.3736151 134.426631,54.467276 136.532813,55.6171875 L136.63125,55.715625 C138.811775,56.7021834 141.286946,56.8178926 143.55,56.0390625 C141.13125,65.2359375 130.035937,69.9328125 128.728125,70.396875 L129.051563,71.1703125 C132.968791,69.6233953 136.543042,67.3202015 139.570312,64.3921875 C142.023371,62.122786 143.659444,59.1076661 144.225,55.8140625 C146.968875,54.8858339 149.445065,53.3026172 151.439063,51.2015625 C156.796875,45.39375 156.796875,34.8890625 151.214063,25.790625 L150.46875,26.2546875 Z M143.746875,55.3078125 C141.593043,56.1493896 139.195285,56.1140542 137.067187,55.209375 L136.898437,54.9140625 C134.198437,53.2125 133.59375,51.2578125 133.59375,49.95 C133.565819,47.7377674 134.493505,45.6210025 136.139062,44.1421875 C137.063973,43.1151596 138.37138,42.5148714 139.753125,42.4828125 C140.612531,42.6500424 141.368047,43.1570997 141.848437,43.8890625 C143.915942,47.2504045 144.629688,51.2715118 143.845312,55.1390625 L143.746875,55.3078125 Z" id="形状" fill="#B6D3F8"></path>
                        <path d="M26.49375,146.376562 C23.9968199,145.820259 21.4210738,145.710754 18.8859375,146.053125 C16.9766057,146.348953 15.026347,146.238742 13.1625,145.729688 L13.4859375,144.942187 C15.2563622,145.43576 17.1117019,145.546026 18.928125,145.265625 C21.5100469,144.920991 24.1323441,145.030452 26.6765625,145.589062 L26.49375,146.376562 Z" id="路径" fill="#AAAAAA"></path>
                    </g>
                </g>
            </g>
        </g>
    </g>
</svg>