<svg t="1633921830864" class="icon" viewBox="0 0 1024 1024" version="1.1" xmlns="http://www.w3.org/2000/svg" p-id="11989" width="14" height="14">
    <path d="M512.155784 1024a511.817156 511.817156 0 0 1-395.674595-836.840797c15.651453-19.015785 38.470395-30.717806 63.04464-32.180559 25.451896-1.170202 50.172416 8.410828 68.237411 26.329548L544.921443 478.758946a46.588672 46.588672 0 0 1-65.604456 65.677594L184.938014 250.203843a419.517463 419.517463 0 0 0 326.559531 681.496464c8.04514 0 15.944004 0 23.916006-0.658239a419.517463 419.517463 0 0 0-23.257767-838.303549c-36.641954 0-73.210771 4.680809-108.682523 14.042425a46.588672 46.588672 0 0 1-23.257767-89.959288A512.402257 512.402257 0 1 1 539.655534 1024h-27.49975z" p-id="11990"></path>
</svg>