<?xml version="1.0" encoding="UTF-8"?>
<svg width="320px" height="230px" viewBox="0 0 320 230" version="1.1" xmlns="http://www.w3.org/2000/svg" xmlns:xlink="http://www.w3.org/1999/xlink">
    <title>缺省页-暂无记录-1@1x</title>
    <defs>
        <rect id="path-1" x="0" y="0" width="320" height="230"></rect>
        <linearGradient x1="49.9999076%" y1="100.000235%" x2="49.9999076%" y2="0.000652077519%" id="linearGradient-3">
            <stop stop-color="#FFFFFF" offset="5.358273e-05%"></stop>
            <stop stop-color="#F0F7FF" offset="100%"></stop>
        </linearGradient>
        <linearGradient x1="50.00062%" y1="43.6408647%" x2="50.00062%" y2="-0.00113597637%" id="linearGradient-4">
            <stop stop-color="#FFFFFF" offset="0%"></stop>
            <stop stop-color="#EFF6FF" offset="100%"></stop>
        </linearGradient>
        <linearGradient x1="65.4973335%" y1="98.4449344%" x2="17.9048798%" y2="1.30022049%" id="linearGradient-5">
            <stop stop-color="#FFFFFF" stop-opacity="0" offset="0%"></stop>
            <stop stop-color="#9DB9E0" offset="100%"></stop>
        </linearGradient>
    </defs>
    <g id="6.SQLeditor" stroke="none" stroke-width="1" fill="none" fill-rule="evenodd">
        <g id="6.4-SQLeditor-执行失败" transform="translate(-734.000000, -560.000000)">
            <g id="缺省页-暂无记录-1" transform="translate(734.000000, 560.000000)">
                <mask id="mask-2" fill="white">
                    <use xlink:href="#path-1"></use>
                </mask>
                <use id="矩形" fill="#FFFFFF" opacity="0" xlink:href="#path-1"></use>
                <path d="M253.508748,61.8487214 L253.508748,205.120861 L67,205.120861 C67.3100942,133.872409 67.5986541,122.915747 67.9130552,51.6414536 L109.68533,51.6414536 C109.762853,64.3510094 109.762853,69.8724092 109.68533,70.0791386 L109.68533,70.1049798 C109.68533,70.1049798 109.737012,70.0791386 109.762853,70.0532974 L109.762853,69.9757739 C109.762853,66.2244953 112.781965,63.2053836 116.533244,63.2053836 C120.284522,63.2053836 123.303634,66.2244953 123.303634,69.9757739 L123.303634,73.9854643 L153.145895,73.9854643 L153.145895,40 L179.917362,40 L179.917362,88.9862719 C179.891521,89.0896366 179.891521,89.1671602 179.891521,89.2748318 L179.891521,105.757201 C179.891521,108.177658 181.84253,110.132974 184.267295,110.132974 C186.661911,110.132974 188.617227,108.181965 188.617227,105.757201 L188.617227,92.9184388 C197.028533,92.8925976 203.122746,92.8667564 207.158277,92.8667564 C211.193809,92.8667564 213.174966,92.8925976 213.355855,92.9184388 C214.006191,92.8409152 213.355855,82.9695828 213.355855,82.9695828 L226.091252,82.9695828 L226.091252,94.6627187 C226.091252,96.4328398 227.525437,97.8670256 229.295559,97.8670256 C231.06568,97.8670256 232.499865,96.4328398 232.499865,94.6627187 L232.499865,61.8487214 L253.508748,61.8487214 L253.508748,61.8487214 Z" id="路径" fill="url(#linearGradient-3)" fill-rule="nonzero" mask="url(#mask-2)"></path>
                <ellipse id="椭圆形" fill="url(#linearGradient-4)" fill-rule="nonzero" mask="url(#mask-2)" cx="159.776043" cy="201.826649" rx="159.776043" ry="75.8266487"></ellipse>
                <polygon id="路径" fill="url(#linearGradient-5)" fill-rule="nonzero" mask="url(#mask-2)" points="107.730552 212.099327 87.1394347 217.853297 76.2387618 182.20969 82.5095559 180.74105"></polygon>
                <g id="编组" mask="url(#mask-2)">
                    <g transform="translate(72.246299, 119.096904)">
                        <path d="M6.8909825,3.76419919 C6.14589502,3.76419919 5.53862719,4.41884253 5.53862719,5.22853297 L5.53862719,9.73351279 C5.53862719,10.5432032 6.14158816,11.1978466 6.8909825,11.1978466 C7.64037685,11.1978466 8.24333782,10.5432032 8.24333782,9.73351279 L8.24333782,5.22853297 C8.23903096,4.41884253 7.63606999,3.76419919 6.8909825,3.76419919 Z" id="圆角矩形-5_10_" fill="#F5986A" fill-rule="evenodd"></path>
                        <path d="M8.69125168,1.28344549 C6.27940781,1.11978466 5.9090175,2.72624495 5.97362046,3.96231494 C5.84441454,3.85464334 5.68506057,3.7512786 5.53862719,3.75989233 C5.03903096,3.79004038 5.08640646,4.43606999 5.08640646,4.43606999 C5.08640646,4.43606999 5.0218035,4.70309556 5.31036339,5.11224764 C5.52570659,5.42234186 6.12866756,5.67213997 6.3526245,5.75827725 L6.43876178,6.0166891 C6.43876178,6.0166891 6.79623149,6.77900404 7.11493943,7.14078062 C7.5628533,7.65329744 7.79111709,7.81695828 7.79111709,7.81695828 C7.79111709,7.81695828 8.2218035,8.14858681 8.69125168,8.269179 C9.12193809,8.37685061 9.59138627,8.269179 9.59138627,8.269179 C9.59138627,8.269179 10.1598923,8.20026918 10.2675639,7.36904441 C10.3321669,6.85652759 10.3580081,6.21480485 10.3580081,5.57738896 L10.3580081,5.41803499 C10.3493943,4.20780619 10.2675639,3.08802153 10.2675639,3.08802153 C10.2675639,3.08802153 10.1254374,1.38250336 8.69125168,1.28344549 Z" id="Combined-shape-564_10_" fill="#F8AD72" fill-rule="evenodd"></path>
                        <path d="M7.79111709,3.31197847 C7.79111709,3.31197847 9.2640646,3.59192463 10.043607,3.31197847 C10.8403769,3.02772544 10.9437416,2.18788694 10.9437416,2.18788694 C10.9437416,2.18788694 10.9652759,1.55908479 10.7197847,1.06379542 C10.5259758,0.671870794 10.043607,0.387617766 10.043607,0.387617766 C10.043607,0.387617766 9.63445491,0.0861372813 9.14347241,0.163660834 C8.75154778,0.223956931 8.46729475,0.615881561 8.46729475,0.615881561 C8.46729475,0.615881561 7.95477793,1.12409152 7.56716016,1.29205922 C7.1666218,1.46433378 6.66702557,1.29205922 6.66702557,1.29205922 C6.66702557,1.29205922 5.88317631,1.11117093 5.31467026,1.74427995 C4.45329744,2.70471063 4.6384926,3.99676985 4.6384926,3.99676985 C4.6384926,3.99676985 4.78061911,4.83660834 5.09071332,5.5730821 C5.34051144,6.17604307 5.76689098,6.47321669 5.76689098,6.47321669 C5.76689098,6.47321669 5.99084791,6.63687752 6.21911171,6.47321669 C6.47321669,6.28802153 6.21911171,6.02099596 6.21911171,6.02099596 L5.99515478,5.56877524 C5.99515478,5.56877524 5.10794078,5.56877524 5.09502019,4.21641992 C5.09071332,3.99246299 5.54724092,3.99246299 5.54724092,3.99246299 C5.54724092,3.99246299 5.80565276,3.98815612 5.99946164,4.21641992 C6.10713324,4.34131898 6.22341857,4.89259758 6.22341857,4.89259758 C6.22341857,4.89259758 6.31816958,3.79434724 6.6756393,3.54024226 C7.08909825,3.23445491 7.79111709,3.31197847 7.79111709,3.31197847 Z" id="形状-17_10_" fill="#000000" fill-rule="nonzero"></path>
                        <path d="M1.76581427,56.458681 L0.426379542,58.5432032 L6.10713324,62.1997308 C6.10713324,62.1997308 6.56366083,61.6053836 6.27079408,60.6966353 C5.97792732,59.7878869 4.62126514,59.0987887 4.62126514,59.0987887 C4.62126514,59.0987887 4.16473755,58.83607 3.98384926,58.422611 C3.84602961,58.1039031 3.85033647,57.7981157 3.85033647,57.7981157 L1.76581427,56.458681 Z" id="形状-30-拷贝_10_" fill="#262A71" fill-rule="evenodd"></path>
                        <path d="M12.0678331,30.3418573 L13.1919246,41.3803499 C13.1919246,41.3803499 13.2393001,41.7162853 13.1919246,42.0565276 C13.1273217,42.4958277 12.9679677,42.9566622 12.9679677,42.9566622 L4.85814266,58.4958277 L2.15343203,56.6955585 C2.15343203,56.6955585 3.94939435,49.3911171 5.53001346,45.433109 C6.1846568,43.7921938 7.78250336,42.7283984 7.78250336,42.7283984 C7.78250336,42.7283984 5.69367429,38.7359354 4.62987887,35.0707941 C4.05706595,33.1025572 4.17765814,30.3418573 4.17765814,30.3418573 L12.0678331,30.3418573 L12.0678331,30.3418573 Z" id="形状-34_4_" fill="#151145" fill-rule="evenodd"></path>
                        <path d="M10.043607,29.8896366 C10.043607,29.8896366 9.83687752,36.7763122 9.14347241,43.628533 C8.2820996,52.1388964 6.8909825,60.9722746 6.8909825,60.9722746 L4.41453567,60.9722746 C4.41453567,60.9722746 3.19569314,52.8064603 3.06218035,47.2333782 C2.98034993,43.7318977 3.73835801,41.8282638 3.73835801,41.8282638 C3.73835801,41.8282638 2.96312248,38.4602961 2.38600269,35.0707941 C1.97685061,32.6632571 1.93378197,29.8896366 1.93378197,29.8896366 L10.043607,29.8896366 Z" id="形状-29-拷贝_4_" fill="#27327B" fill-rule="evenodd"></path>
                        <path d="M4.4102288,60.9722746 L4.4102288,63.4487214 L11.1676985,63.4487214 C11.1676985,63.4487214 11.2323015,62.7036339 10.4915209,62.0963661 C9.75504711,61.4934051 8.23903096,61.6441454 8.23903096,61.6441454 C8.23903096,61.6441454 7.71359354,61.6699865 7.33889637,61.4201884 C7.05033647,61.2263795 6.88667564,60.9679677 6.88667564,60.9679677 L4.4102288,60.9679677 L4.4102288,60.9722746 Z" id="形状-30_10_" fill="#2B3682" fill-rule="evenodd"></path>
                        <path d="M15.840646,16.9690444 C15.840646,16.9690444 16.917362,16.5814266 17.3738896,16.5340511 C17.7485868,16.4952894 17.3523553,17.0379542 17.3523553,17.0379542 C17.3523553,17.0379542 17.4987887,17.1628533 17.8562584,17.0594886 C18.0113055,17.0164199 18.4635262,16.7493943 18.5798116,16.6890983 C18.7693136,16.5857335 18.8855989,16.602961 18.8855989,16.602961 C18.8855989,16.602961 19.7900404,16.7149394 19.1267833,18.0242261 C18.756393,18.7520861 16.4349933,19.6177658 16.4349933,19.6177658 L15.840646,16.9690444 Z" id="形状-26-拷贝_3_" fill="#F48D67" fill-rule="evenodd"></path>
                        <path d="M11.4562584,12.0161507 L9.36312248,18.2998654 L15.745895,16.8312248 L16.3144011,19.484253 L7.19676985,22.0166891 C7.19676985,22.0166891 6.7833109,21.9908479 6.52059219,21.797039 C6.24064603,21.5903096 6.10713324,21.2156124 6.10713324,21.2156124 L5.21130552,17.4858681 L11.4562584,12.0161507 Z" id="形状-31_2_" fill="#B0D0FF" fill-rule="evenodd"></path>
                        <path d="M12.0678331,12.769852 L12.0678331,30.3375505 L0.805303037,30.3375505 L0.805303037,12.9938089 C0.805303037,12.9938089 0.788156124,12.1410498 1.25760431,11.4174966 C1.71843876,10.7068641 2.60995962,10.2934051 2.60995962,10.2934051 L5.05625841,8.97550471 L5.53432032,8.71709287 C5.53432032,8.71709287 5.58169583,8.84199192 5.66783311,9.02288022 C5.78411844,9.25114401 5.96931359,9.57415882 6.21049798,9.84118439 C6.77469717,10.4699865 7.5628533,10.9695828 7.5628533,10.9695828 C7.5628533,10.9695828 7.86864065,10.8102288 8.01507402,10.517362 C8.13135935,10.2847914 8.18734859,9.99192463 8.21749664,9.80242261 L8.21749664,9.79380888 C8.23472409,9.68613728 8.23903096,9.61722746 8.23903096,9.61722746 C8.23903096,9.61722746 8.41561238,9.63445491 8.69125168,9.69044415 C9.25545087,9.80242261 10.2288022,10.0823688 10.9394347,10.741319 C11.912786,11.6414536 12.0678331,12.769852 12.0678331,12.769852 Z" id="路径" fill="#B0D0FF" fill-rule="evenodd"></path>
                        <path d="M5.99946164,8.20457604 C5.99946164,8.20457604 5.97362046,7.0589502 6.0769852,6.6153432 C6.15881561,6.24495289 6.54643338,6.79623149 6.54643338,6.79623149 C6.54643338,6.79623149 6.71009421,6.69717362 6.72732167,6.32678331 C6.7359354,6.16742934 6.6282638,5.65491252 6.60672948,5.52570659 C6.57227456,5.31467026 6.62395693,5.20699865 6.62395693,5.20699865 C6.62395693,5.20699865 7.01588156,4.38438762 8.04952894,5.43526245 C8.62234186,6.0166891 8.69986541,8.4974428 8.69986541,8.4974428 L5.99946164,8.20457604 Z" id="形状-26_10_" fill="#EF8D61" fill-rule="evenodd"></path>
                        <path d="M8.79892328,8.41561238 L8.69125168,9.69044415 L8.51467026,11.7749664 L8.51467026,11.7835801 L7.96339166,18.4161507 C7.96339166,18.4290713 7.95908479,18.756393 7.58438762,19.0234186 C7.37765814,19.1655451 6.92113055,19.2775236 6.92113055,19.2775236 L0.80538358,20.6600269 L0.80538358,16.6890983 L4.66864065,16.1722746 L5.43095559,10.7111709 L5.66783311,9.02288022 L5.77119785,8.27779273 L8.79892328,8.41561238 Z" id="路径" fill="#7FB5F7" fill-rule="evenodd"></path>
                    </g>
                </g>
                <g id="出错了" mask="url(#mask-2)" fill-rule="nonzero">
                    <g transform="translate(96.000000, 53.000000)">
                        <rect id="矩形" fill="#000000" opacity="0" x="0" y="0" width="128" height="128"></rect>
                        <path d="M26.1,114.65 C26.1,116.543508 33.3094039,118.293181 45.0124998,119.239935 C56.7155956,120.186689 71.1344044,120.186689 82.8375002,119.239935 C94.5405961,118.293181 101.75,116.543508 101.75,114.65 C101.75,112.756492 94.540596,111.006819 82.8375002,110.060065 C71.1344044,109.113311 56.7155956,109.113311 45.0124998,110.060065 C33.309404,111.006819 26.1,112.756492 26.1,114.65 L26.1,114.65 Z" id="路径" fill="#E0EDFD"></path>
                        <path d="M61.6625,92.7125 L67.7125,92.7125 C69.3875,92.7125 70.7375,94.0625 70.7375,95.7375 L70.7375,113.8875 C70.7375,115.5625 69.3875,116.9125 67.7125,116.9125 L61.6625,116.9125 C59.9875,116.9125 58.6375,115.5625 58.6375,113.8875 L58.6375,95.7375 C58.6375,94.0625 60,92.7125 61.6625,92.7125 L61.6625,92.7125 Z" id="路径" fill="#888888"></path>
                        <polygon id="路径" fill="#FFFFFF" points="61.6625 94.225 67.7125 94.225 67.7125 113.7875 61.6625 113.7875"></polygon>
                        <path d="M38.1,91.4625 L16.9125,53.8625 C16.0625,52.3375 16.0625,49.8625 16.9125,48.3375 L38.1,10.7375 C38.95,9.2125 41.0625,7.975 42.7625,7.975 L85.1125,7.975 C86.825,7.975 88.925,9.225 89.775,10.7375 L110.95,48.3375 C111.8,49.8625 111.8,52.3375 110.95,53.8625 L89.775,91.45 C88.925,92.975 86.8125,94.2125929 85.1125,94.2125929 L42.7625,94.2125929 C41.05,94.225 38.95,92.975 38.1,91.4625 Z" id="路径" fill="#F88A8A"></path>
                        <path d="M48.240625,81.8625 L79.615625,81.85 C80.878125,81.85 82.440625,80.9625 83.065625,79.8625 L98.753125,52.825 C99.390625,51.725 99.390625,49.95 98.753125,48.85 L83.065625,21.8125 C82.428125,20.725 80.878125,19.825 79.615625,19.825 L48.240625,19.825 C46.978125,19.825 45.415625,20.7125 44.790625,21.8125 L29.090625,48.85 C28.453125,49.95 28.453125,51.725 29.090625,52.825 L44.778125,79.875 C45.415625,80.9625 46.978125,81.8625 48.240625,81.8625 Z M47.028125,84.8875 C45.640625,84.8875 43.940625,83.9 43.253125,82.7125 L26.115625,53.0125 C25.428125,51.8125 25.428125,49.85 26.115625,48.65 L43.253125,18.975 C43.940625,17.775 45.640625,16.8 47.028125,16.8 L81.315625,16.8 C82.703125,16.8 84.403125,17.7875 85.090625,18.975 L102.240625,48.65 C102.928125,49.85 102.928125,51.8125 102.240625,53.0125 L85.090625,82.7 C84.403125,83.9 82.703125,84.875 81.315625,84.875 L47.028125,84.8875 L47.028125,84.8875 Z" id="形状" fill="#FFFFFF"></path>
                        <path d="M63.8666667,61.1333333 C65.0666667,61.1333333 65.7111111,60.2666667 65.8,58.5333333 C66.3777778,49.4222222 66.8222222,42.6444444 67.1333333,38.2 C67.2666667,35.4888889 67.3333333,33.6444444 67.3333333,32.6666667 C67.3333333,30.0888889 66.1777778,28.8 63.8666667,28.8 C62.8,28.8 61.9555556,29.1333333 61.3333333,29.8 C60.7111111,30.5111111 60.4,31.4222222 60.4,32.5333333 C60.4,33.5555556 60.4666667,35.4444444 60.6,38.2 C61.1777778,48.0666667 61.6222222,54.8444444 61.9333333,58.5333333 C62.0666667,60.2666667 62.7111111,61.1333333 63.8666667,61.1333333 Z M64.1333333,73.6 C65.2888889,73.6 66.2666667,73.1777778 67.0666667,72.3333333 C67.8222222,71.5777778 68.2,70.6222222 68.2,69.4666667 C68.2,68.3555556 67.8222222,67.3777778 67.0666667,66.5333333 C66.2666667,65.7333333 65.2888889,65.3333333 64.1333333,65.3333333 C62.9333333,65.3333333 61.9555556,65.7333333 61.2,66.5333333 C60.4,67.3777778 60,68.3555556 60,69.4666667 C60,70.6222222 60.4,71.5777778 61.2,72.3333333 C61.9555556,73.1777778 62.9333333,73.6 64.1333333,73.6 Z" id="!" fill="#FFFFFF"></path>
                    </g>
                </g>
            </g>
        </g>
    </g>
</svg>