<?xml version="1.0" standalone="no"?><!DOCTYPE svg PUBLIC "-//W3C//DTD SVG 1.1//EN" "http://www.w3.org/Graphics/SVG/1.1/DTD/svg11.dtd"><svg t="1633758471736" class="icon" viewBox="0 0 1024 1024" version="1.1" xmlns="http://www.w3.org/2000/svg" p-id="4727" xmlns:xlink="http://www.w3.org/1999/xlink" width="12" height="12"><defs><style type="text/css"></style></defs><path d="M971.52 512c-26.24 0-52.544 19.712-52.544 52.48v308.544c0 26.24-19.712 52.48-52.48 52.48H144.32a51.776 51.776 0 0 1-52.48-52.48V150.976c0-26.24 19.712-45.952 52.48-45.952H485.76c26.24 0 52.48-19.712 52.48-52.48C538.24 19.712 518.592 0 485.76 0H150.976C72.256 0 0 65.664 0 144.384v722.048c0 78.784 65.664 151.04 150.976 151.04h722.048c78.72 0 150.976-65.664 150.976-151.04v-308.48c0-26.24-26.24-45.952-52.48-45.952zM426.624 610.432c0 26.24 19.648 52.544 45.952 52.544h6.528c26.24 0 45.952-19.712 45.952-45.952 0 0 26.24-269.12 347.904-380.736l-59.072 111.616c-13.12 26.24-6.592 52.48 19.712 65.664 6.528 6.528 13.12 6.528 26.24 6.528 19.712 0 32.832-6.528 45.952-26.24l111.552-210.048v-26.24s0-6.592-6.528-6.592c0 0 0-6.592-6.592-6.592l-6.528-6.528-6.592-6.592L781.12 19.712c-26.24-13.12-52.48-6.592-65.664 19.648-13.12 26.24-6.528 52.48 19.712 65.664l105.024 39.36C459.52 275.712 426.688 603.904 426.688 610.432z" p-id="4728" fill="#2684FC"></path></svg>