<?xml version="1.0" encoding="UTF-8"?>
<svg width="24px" height="24px" viewBox="0 0 24 24" version="1.1" xmlns="http://www.w3.org/2000/svg" xmlns:xlink="http://www.w3.org/1999/xlink">
    <title>more</title>
    <g id="页面-1" stroke="none" stroke-width="1" fill="none" fill-rule="evenodd" opacity="0.9">
        <g id="header" transform="translate(-1392.000000, -15.000000)" fill-rule="nonzero">
            <g id="icon" transform="translate(1230.000000, 15.000000)">
                <g id="more" transform="translate(162.000000, 0.000000)">
                    <rect id="矩形" fill="#000000" opacity="0" x="0" y="0" width="24" height="24"></rect>
                    <path d="M12,1.56 C11.2283063,1.56 10.5152319,1.97169365 10.1293851,2.63999999 C9.74353824,3.30830632 9.74353824,4.13169368 10.1293851,4.80000001 C10.5152319,5.46830635 11.2283063,5.88 12,5.88 C13.1929351,5.88 14.16,4.91293506 14.16,3.72 C14.16,2.52706494 13.1929351,1.56 12,1.56 L12,1.56 Z M12,9.84 C10.8070649,9.84 9.84,10.8070649 9.84,12 C9.84,13.1929351 10.8070649,14.16 12,14.16 C13.1929351,14.16 14.16,13.1929351 14.16,12 C14.16,10.8070649 13.1929351,9.84 12,9.84 L12,9.84 Z M12,18.12 C10.8070649,18.12 9.84,19.0870649 9.84,20.28 C9.84,21.4729351 10.8070649,22.44 12,22.44 C13.1929351,22.44 14.16,21.4729351 14.16,20.28 C14.16,19.0870649 13.1929351,18.12 12,18.12 L12,18.12 Z" id="形状" fill="#FFFFFF"></path>
                </g>
            </g>
        </g>
    </g>
</svg>