<svg t="1633775193651" class="icon" viewBox="0 0 1024 1024" version="1.1" xmlns="http://www.w3.org/2000/svg" p-id="9783" width="24" height="24">
    <path d="M661.845333 995.242667a18.176 18.176 0 0 1-18.090666 18.133333h-36.266667a18.176 18.176 0 0 1-18.090667-18.133333v-36.224c0-9.941333 8.149333-18.090667 18.133334-18.090667h36.224c9.941333 0 18.090667 8.149333 18.090666 18.090667v36.266666z m362.154667 0v-36.224a18.176 18.176 0 0 0-18.090667-18.090667h-253.525333a18.176 18.176 0 0 0-18.090667 18.090667v36.266666c0 9.941333 8.106667 18.090667 18.090667 18.090667h253.525333a18.005333 18.005333 0 0 0 18.090667-18.133333z m-362.154667-180.608a18.176 18.176 0 0 0-18.090666-18.133334h-36.266667a18.176 18.176 0 0 0-18.090667 18.133334v36.224c0 9.941333 8.149333 18.090667 18.133334 18.090666h36.224a18.176 18.176 0 0 0 18.090666-18.090666v-36.266667z m362.154667 36.224v-36.266667a18.176 18.176 0 0 0-18.090667-18.090667h-253.525333a18.176 18.176 0 0 0-18.090667 18.133334v36.224c0 9.941333 8.106667 18.090667 18.090667 18.090666h253.525333a18.090667 18.090667 0 0 0 18.090667-18.090666z m-362.154667-180.736a18.176 18.176 0 0 0-18.090666-18.133334h-36.266667a18.176 18.176 0 0 0-18.090667 18.133334v36.181333c0 9.984 8.149333 18.133333 18.133334 18.133333h36.224a18.176 18.176 0 0 0 18.090666-18.133333v-36.181333z m362.154667 36.181333v-36.181333a18.176 18.176 0 0 0-18.090667-18.133334h-253.525333a18.176 18.176 0 0 0-18.090667 18.133334v36.181333c0 9.984 8.106667 18.133333 18.090667 18.133333h253.525333a18.090667 18.090667 0 0 0 18.090667-18.133333z m-901.205333-15.701333l-65.877334 30.208c80.682667 173.141333 256.341333 293.248 459.946667 293.248h0.128v-72.448h-0.128a434.816 434.816 0 0 1-394.069333-251.008zM516.864 0A507.050667 507.050667 0 0 0 55.552 296.405333l65.877333 30.208a434.56 434.56 0 0 1 395.434667-254.165333c240.042667 0 434.602667 194.56 434.602667 434.56 0 24.704-2.048 49.024-5.973334 72.533333h73.301334c3.413333-23.637333 5.205333-47.829333 5.205333-72.533333C1023.872 227.029333 796.842667 0 516.864 0z m2.474667 178.944h-4.522667a34.048 34.048 0 0 0-33.92 33.92v294.272c0 18.688 15.274667 33.962667 33.92 33.962667h4.522667a34.048 34.048 0 0 0 33.962666-33.962667V212.864a34.048 34.048 0 0 0-33.962666-33.92zM313.173333 624.938667a36.352 36.352 0 0 0 49.450667 13.226666l172.458667-99.584a36.352 36.352 0 0 0 13.226666-49.450666 36.352 36.352 0 0 0-49.450666-13.226667L326.4 575.488a36.309333 36.309333 0 0 0-13.226667 49.493333zM0 272.64l29.184 191.829333 151.466667-121.173333L0 272.64z" p-id="9784" fill="#ffffff"></path>
</svg>