<?xml version="1.0" encoding="UTF-8"?>
<svg width="24px" height="24px" viewBox="0 0 24 24" version="1.1" xmlns="http://www.w3.org/2000/svg" xmlns:xlink="http://www.w3.org/1999/xlink">
    <title>监控</title>
    <g id="页面" stroke="none" stroke-width="1" fill="none" fill-rule="evenodd" opacity="0.7">
        <g id="01-HOME" transform="translate(-1234.000000, -18.000000)" fill="#FFFFFF" fill-rule="nonzero">
            <g id="头部" transform="translate(0.000000, 2.000000)">
                <g id="监控" transform="translate(1234.000000, 16.000000)">
                    <rect id="矩形" opacity="0" x="0" y="0" width="24" height="24"></rect>
                    <path d="M22.885395,17.5485893 L22.8825028,17.5460815 L22.8796107,17.5435737 C21.6041613,15.2037618 19.6288055,14 16.999818,14 C14.3708305,14 12.3954747,15.2062696 11.1171331,17.5435737 L11.1171331,17.5460815 C10.9609556,17.8344828 10.9609556,18.1705329 11.1171331,18.4589342 C12.3954747,20.7962382 14.3708305,22 16.999818,22 C19.6288055,22 21.6041613,20.7937304 22.8825028,18.4564263 C23.0386803,18.1680251 23.0386803,17.8344828 22.885395,17.5485893 Z M18.5,20 C16.9596031,20 15.835932,19.2146597 15,17.5 C15.8334515,15.7853403 16.9596031,15 18.5,15 C20.0403969,15 21.164068,15.7853403 22,17.5 C21.1665485,19.2146597 20.0403969,20 18.5,20 Z M17,17.5 C17,18.3284271 17.6715729,19 18.5,19 C19.3284271,19 20,18.3284271 20,17.5 C20,16.6715729 19.3284271,16 18.5,16 C17.6715729,16 17,16.6715729 17,17.5 Z M1.86792453,4.97260274 L20.1320755,4.97260274 L20.1320755,11.9041096 L22,11.9041096 L22,3.87671233 C22,3.39178082 21.6290094,3 21.1698113,3 L0.830188679,3 C0.370990566,3 0,3.39178082 0,3.87671233 L0,18.1232877 C0,18.6082192 0.370990566,19 0.830188679,19 L9.96226415,19 L9.96226415,17.0273973 L1.86792453,17.0273973 L1.86792453,4.97260274 Z M17.9297549,6.92886213 L16.8526629,6.05519756 C16.7619297,5.98160081 16.6126588,5.98160081 16.5219255,6.05519756 L11.1423196,10.4235204 L8.62227565,8.37705613 C8.53154236,8.30345939 8.38227147,8.30345939 8.29153818,8.37705613 L4.06804997,11.8028659 C3.97731668,11.8764626 3.97731668,11.9975411 4.06804997,12.0711379 L5.1451419,12.9448024 C5.23587519,13.0183992 5.38514608,13.0183992 5.47587937,12.9448024 L8.45544347,10.5279803 L10.9754874,12.5744446 C11.0662207,12.6480414 11.2154916,12.6480414 11.3062248,12.5744446 L17.9297549,7.19713414 C18.023415,7.12353739 18.023415,7.00245888 17.9297549,6.92886213 L17.9297549,6.92886213 Z" id="形状"></path>
                </g>
            </g>
        </g>
    </g>
</svg>