<?xml version="1.0" encoding="UTF-8"?>
<svg width="24px" height="24px" viewBox="0 0 24 24" version="1.1" xmlns="http://www.w3.org/2000/svg" xmlns:xlink="http://www.w3.org/1999/xlink">
    <g id="控件" stroke="none" stroke-width="1" fill="none" fill-rule="evenodd" opacity="0.9">
        <g id="页面模块/header" transform="translate(-1338.000000, -15.000000)" fill-rule="nonzero">
            <g id="icon" transform="translate(1230.000000, 15.000000)">
                <g id="yuyan" transform="translate(108.000000, 0.000000)">
                    <rect id="矩形" fill="#000000" opacity="0" x="0" y="0" width="24" height="24"></rect>
                    <path d="M20.1740428,20.7208601 C19.7536113,20.7707217 19.3723183,20.4708155 19.3225951,20.0512906 C19.3171797,20.0046222 19.3159489,19.9577081 19.3189028,19.9110397 L19.3189028,16.8898714 C19.3189028,16.0613835 18.7731787,16.0613835 18.5673937,16.0613835 C18.0435774,16.0500849 17.6096074,16.4649428 17.5985305,16.9878751 C17.5982843,16.9991738 17.5982843,17.0104725 17.5985305,17.0215255 L17.5985305,19.9115309 C17.5798227,20.3757592 17.1872066,20.7370713 16.721975,20.7181583 C16.2830819,20.7004734 15.9313274,20.3494775 15.9136043,19.9115309 L15.9136043,15.3394962 C15.8833274,14.9162871 16.2025895,14.5488344 16.6267133,14.5188683 C16.6683134,14.5159209 16.7101596,14.5164121 16.7517597,14.5200965 C17.0742866,14.4933343 17.3803187,14.6664403 17.5229611,14.9563237 C17.9133558,14.6654601 18.3894182,14.5120388 18.8765635,14.5200965 C20.2085044,14.5200965 21.0045674,15.3451456 21.0045674,16.7314443 L21.0045674,19.9110397 C21.0143775,20.1268639 20.9354184,20.3373223 20.7859824,20.4936584 C20.6217649,20.6493415 20.401356,20.732016 20.1750274,20.7228251 L20.1740428,20.7208601 L20.1740428,20.7208601 Z M14.435694,20.537625 L11.1199957,20.537625 C10.0671938,20.537625 9.59753138,20.071923 9.59753138,19.0253215 L9.59753138,14.3665818 C9.59753138,13.322191 10.0674399,12.8542783 11.1199957,12.8542783 L14.288986,12.8542783 C14.7300945,12.8542783 15.0877567,13.2111692 15.0877567,13.6513264 C15.0877567,14.0914836 14.7300945,14.4483744 14.288986,14.4483744 L11.4279347,14.4483744 C11.3979039,14.4464094 11.3676269,14.450585 11.3393191,14.4606556 C11.3425191,14.4606556 11.3356268,14.4803055 11.3356268,14.5316408 L11.3356268,15.8231288 L13.9448623,15.8231288 C14.3468323,15.7823553 14.7057252,16.0746472 14.7465868,16.4757503 C14.7507715,16.517015 14.7515099,16.5585254 14.7485561,16.6000357 C14.7726792,17.0092444 14.4598171,17.3607315 14.0494779,17.3848026 C14.0147701,17.3867676 13.9798162,17.386522 13.9451085,17.3835745 L11.3336576,17.3835745 L11.3336576,18.8597713 C11.332673,18.8858074 11.3356268,18.9120891 11.342273,18.9371427 C11.3698423,18.9408271 11.3976577,18.9427921 11.4254731,18.9430377 L14.4361863,18.9430377 C14.853664,18.916756 15.2135415,19.233119 15.23988,19.6494507 C15.2416031,19.677943 15.2418493,19.706681 15.2403723,19.7354189 C15.2736032,20.1451188 14.9678795,20.5042203 14.5572942,20.5373794 C14.5169249,20.5405725 14.4765556,20.5405725 14.4361863,20.5373794 L14.435694,20.5373794 L14.435694,20.537625 Z M7.41094281,11.2908851 C6.98361896,11.3488523 6.59026441,11.0501742 6.53217199,10.6237719 C6.52478736,10.5694891 6.52306428,10.5147151 6.52724891,10.4599411 L6.52724891,8.53130582 L4.42829127,8.53130582 C3.29942769,8.53130582 2.79604216,8.02728653 2.79604216,6.90257681 L2.79604216,4.59690961 C2.79604216,3.47735798 3.30115077,2.97825116 4.42829127,2.97825116 L6.52724891,2.97825116 L6.52724891,2.20380046 C6.49327962,1.78353876 6.80712634,1.41510361 7.22829633,1.38120757 C7.27555795,1.37752322 7.32281958,1.37801447 7.3700812,1.38292694 C8.11494408,1.38292694 8.27174437,1.82922472 8.27174437,2.20380046 L8.27174437,2.9797249 L10.3908867,2.9797249 C11.5197502,2.9797249 12.0236281,3.47932297 12.0236281,4.5978921 L12.0236281,6.90405055 C12.0236281,8.03047964 11.5185195,8.53228832 10.3908867,8.53228832 L8.27272899,8.53228832 L8.27272899,10.4609235 C8.30349827,10.8900277 7.97980538,11.2628841 7.54977383,11.2938326 C7.50349683,11.2970257 7.45721982,11.2962889 7.41118897,11.2913764 L7.41118897,11.2908851 L7.41094281,11.2908851 Z M4.69512252,4.62024384 C4.53586069,4.62024384 4.52109144,4.63498124 4.52109144,4.79389961 L4.52109144,6.71467488 C4.52109144,6.87506699 4.53586069,6.89029564 4.69512252,6.89029564 L6.52724891,6.89029564 L6.52724891,4.62024384 L4.69512252,4.62024384 L4.69512252,4.62024384 Z M8.27297514,6.88931315 L10.1262708,6.88931315 C10.2811018,6.88931315 10.3007942,6.86966327 10.3007942,6.71565738 L10.3007942,4.79365398 C10.3007942,4.63915684 10.2811018,4.61950697 10.1262708,4.61950697 L8.27248283,4.61950697 L8.27248283,6.88955877 L8.27297514,6.88955877 L8.27297514,6.88931315 Z M12.0002434,23 C5.90669394,22.9818239 0.98188504,18.038161 1.00005009,11.9577528 C1.002562,11.0980707 1.10619296,10.2418274 1.30828563,9.40621651 C1.42668584,8.93953198 1.89708669,8.6526438 2.36748754,8.76047249 C2.83764224,8.87370489 3.12711969,9.34530189 3.01462717,9.81444266 C1.81019423,14.7841417 4.87112284,19.7869998 9.85156261,20.9888353 C10.5551962,21.1586424 11.2763283,21.245694 12.0002434,21.2482136 C12.4849212,21.2487049 12.8775373,21.6409655 12.8772913,22.1248437 C12.8767988,22.607985 12.4844289,22.9995088 12.0002434,23 L12.0002434,23 Z M21.8092458,15.3844453 C21.324568,15.3844453 20.9314596,14.9924303 20.9314596,14.5087978 C20.9314596,14.4363389 20.9405673,14.36388 20.9582904,14.2936317 C22.221308,9.33645945 19.2179795,4.29626652 14.2500936,3.03597267 C13.5143385,2.84929886 12.7586448,2.75350572 11.999505,2.75055824 C11.5150733,2.75055824 11.1222111,2.35878885 11.1222111,1.87540193 C11.1222111,1.39201501 11.5148272,1 11.9992588,1 L11.999505,1 C18.0935467,1.01866738 23.0186018,5.96355841 22.9999472,12.0444578 C22.9971864,12.9483521 22.8827246,13.8483164 22.6594627,14.7242095 C22.561001,15.1122946 22.2107234,15.3844453 21.8092458,15.3844453 Z" id="形状" fill="#FFFFFF"></path>
                </g>
            </g>
        </g>
    </g>
</svg>