<?xml version="1.0" encoding="UTF-8"?>
<svg width="15px" height="14px" viewBox="0 0 15 14" version="1.1" xmlns="http://www.w3.org/2000/svg" xmlns:xlink="http://www.w3.org/1999/xlink">
    <title>失败@1x</title>
    <g id="6.SQLeditor" stroke="none" stroke-width="1" fill="none" fill-rule="evenodd">
        <g id="6.4-SQLeditor-执行失败" transform="translate(-518.000000, -517.000000)" fill-rule="nonzero">
            <g id="编组-2" transform="translate(383.000000, 512.000000)">
                <g id="失败" transform="translate(135.577586, 5.000000)">
                    <rect id="矩形" fill="#000000" opacity="0" x="0" y="0" width="13.8524904" height="14"></rect>
                    <path d="M6.92624521,0 C10.7515048,0 13.8524904,3.13400675 13.8524904,7 C13.8524904,10.8659932 10.7515048,14 6.92624521,14 C3.10098561,14 0,10.8659932 0,7 C0,3.13400675 3.10098561,0 6.92624521,0 Z M6.92624521,9.60638298 C6.41046099,9.60638298 6.06660485,9.95390071 6.06660485,10.4751773 C6.06660485,10.9964539 6.41046099,11.3439716 6.92624521,11.3439716 C7.44202943,11.3439716 7.78588557,10.9964539 7.78588557,10.4751773 C7.78588557,9.95390071 7.44202943,9.60638298 6.92624521,9.60638298 Z M6.92624521,2.65602837 C6.41046099,2.65602837 6.06660485,3.08959811 6.06660485,3.61252955 L6.41046099,8.30236407 C6.49724373,8.56382979 6.66917181,8.73593381 6.92624521,8.73593381 C7.18495602,8.73593381 7.35524669,8.56217494 7.44202943,8.30236407 L7.78588557,3.5248227 C7.78588557,3.0035461 7.3568841,2.65602837 6.92624521,2.65602837 Z" id="形状结合" fill="#FF7575"></path>
                </g>
            </g>
        </g>
    </g>
</svg>