<svg t="1634012110453" class="icon" viewBox="0 0 1097 1024" version="1.1" xmlns="http://www.w3.org/2000/svg" p-id="3401" width="14" height="14">
    <path d="M958.902857 73.142857a73.142857 73.142857 0 0 1 73.142857 73.142857v731.428572a73.142857 73.142857 0 0 1-73.142857 73.142857h-877.714286a73.142857 73.142857 0 0 1-73.142857-73.142857V146.285714a73.142857 73.142857 0 0 1 73.142857-73.142857h877.714286z m-73.142857 73.142857h-731.428571a73.142857 73.142857 0 0 0-73.142858 73.142857v585.142858a73.142857 73.142857 0 0 0 73.142858 73.142857h731.428571a73.142857 73.142857 0 0 0 73.142857-73.142857V219.428571a73.142857 73.142857 0 0 0-73.142857-73.142857zM265.508571 702.171429V563.931429h48.274286c33.499429 0 59.099429-1.755429 76.8-5.266286 12.946286-2.852571 25.746286-8.630857 38.326857-17.334857 12.580571-8.777143 22.966857-20.845714 31.158857-36.132572 8.118857-15.36 12.214857-34.304 12.214858-56.758857 0-29.184-7.094857-52.955429-21.211429-71.387428a96.109714 96.109714 0 0 0-52.809143-35.84c-13.677714-3.657143-43.008-5.558857-87.990857-5.558858H191.634286V702.171429H265.508571z m40.521143-200.484572H265.508571V397.677714h35.84c26.624 0 44.324571 0.804571 53.174858 2.486857a51.2 51.2 0 0 1 29.769142 16.237715c7.826286 8.704 11.702857 19.748571 11.702858 32.987428a49.298286 49.298286 0 0 1-8.338286 28.525715 48.566857 48.566857 0 0 1-23.113143 17.993142c-9.874286 3.876571-29.330286 5.778286-58.514286 5.778286zM608.036571 702.171429V591.433143l59.977143-61.293714L768.804571 702.171429h95.744L718.994286 478.354286l138.020571-142.628572h-99.474286L608.036571 498.322286V335.725714H534.016V702.171429h74.020571z" p-id="3402" fill="#2684FC"></path>
</svg>