<svg t="1633775825145" class="icon" viewBox="0 0 1024 1024" version="1.1" xmlns="http://www.w3.org/2000/svg" p-id="11141" width="297" height="297">
    <path d="M226.440533 199.076978l268.970667-81.180445a121.742222 121.742222 0 0 1 70.280533 0L834.673778 199.111111c50.130489 15.132444 84.366222 60.552533 84.388978 112.014222V658.659556c0 76.959289-38.479644 149.037511-102.980267 192.853333L598.584889 999.196444a121.4464 121.4464 0 0 1-136.0896 0L245.031822 851.512889c-64.489244-43.804444-102.980267-115.871289-102.980266-192.830578V311.159467c0-51.484444 34.235733-96.938667 84.388977-112.071111z" fill="#F7FAFF" p-id="11142"></path>
    <path d="M142.040178 596.252444c21.890844 0 39.640178 17.408 39.640178 38.889245 0 21.469867-17.749333 38.889244-39.640178 38.889244S102.4 656.611556 102.4 635.141689c0-21.481244 17.749333-38.889244 39.640178-38.889245z m700.279466 0c21.890844 0 39.640178 17.408 39.640178 38.889245 0 21.469867-17.749333 38.889244-39.640178 38.889244s-39.640178-17.408-39.640177-38.889244c0-21.481244 17.749333-38.889244 39.640177-38.889245zM485.569422 0c14.165333 0 27.249778 7.406933 34.338134 19.444622a38.252089 38.252089 0 0 1 0 38.889245 39.788089 39.788089 0 0 1-34.338134 19.433244c-21.890844 0-39.6288-17.408-39.6288-38.877867C445.940622 17.408 463.689956 0 485.569422 0z" fill="#2684FC" p-id="11143"></path>
    <path d="M776.430933 734.845156L558.956089 882.551467a121.4464 121.4464 0 0 1-136.0896 0L205.391644 734.845156a238.956089 238.956089 0 0 1-17.271466-12.913778h83.740444l196.881067 133.711644c11.377778 7.714133 26.441956 7.714133 37.819733 0L703.431111 721.92l90.282667 0.011378c-5.5296 4.539733-11.298133 8.851911-17.282845 12.913778zM564.861156 12.970667l230.161066 69.495466c50.141867 15.132444 84.366222 60.552533 84.388978 112.014223v320.068266h-59.380622V170.746311c-0.034133-14.279111-9.545956-26.874311-23.460978-31.072711L564.861156 69.711644V12.970667z m-158.560712 3.208533v54.784l-227.566933 68.721778c-13.9264 4.209778-23.438222 16.816356-23.472355 31.106844v343.7568H102.411378V194.503111c0-51.484444 34.235733-96.938667 84.400355-112.071111L406.300444 16.156444z" fill="#1A2A4C" p-id="11144"></path>
    <path d="M523.912533 338.147556l165.432889 77.186844a29.366044 29.366044 0 0 1 19.114667 27.374933c0 12.117333-7.588978 22.983111-19.114667 27.363556l-52.462933 24.484978 52.474311 24.4736a29.366044 29.366044 0 0 1 19.114667 27.374933c0 12.117333-7.600356 22.983111-19.114667 27.363556l-165.432889 77.186844a60.882489 60.882489 0 0 1-50.414933 0l-165.432889-77.186844a29.366044 29.366044 0 0 1-19.114667-27.363556c0-12.117333 7.588978-22.983111 19.114667-27.374933l52.451555-24.4736-52.451555-24.484978a29.366044 29.366044 0 0 1-19.114667-27.363556c0-12.117333 7.588978-22.983111 19.114667-27.374933l165.432889-77.175467a60.882489 60.882489 0 0 1 50.403555 0z" fill="#D5E6FD" p-id="11145"></path>
    <path d="M321.604267 530.8416l162.144711 79.098311c9.432178 4.573867 20.491378 4.573867 29.923555 0l162.292623-79.098311a22.812444 22.812444 0 0 1 23.620266 0.022756c7.224889 4.4032 11.298133 12.435911 10.513067 20.741688a22.072889 22.072889 0 0 1-14.2336 18.488889l-162.451911 79.098311a79.485156 79.485156 0 0 1-34.702222 7.918934 79.496533 79.496533 0 0 1-34.702223-7.918934l-162.292622-79.098311a22.072889 22.072889 0 0 1-14.2336-18.488889c-0.796444-8.305778 3.2768-16.338489 10.513067-20.741688a22.812444 22.812444 0 0 1 23.608889-0.022756z m0-93.036089l162.144711 79.098311c9.443556 4.494222 20.48 4.494222 29.923555 0l162.292623-79.098311a22.812444 22.812444 0 0 1 23.620266 0.022756c7.224889 4.4032 11.298133 12.435911 10.513067 20.753066a22.072889 22.072889 0 0 1-14.2336 18.477511l-162.451911 79.098312a79.485156 79.485156 0 0 1-34.702222 7.918933 79.712711 79.712711 0 0 1-34.702223-7.918933l-162.292622-79.098312a22.072889 22.072889 0 0 1-14.2336-18.477511c-0.796444-8.305778 3.2768-16.349867 10.513067-20.753066a22.812444 22.812444 0 0 1 23.608889-0.022756z m202.308266-186.0608l165.432889 77.186845a29.366044 29.366044 0 0 1 19.114667 27.363555c0 12.117333-7.588978 22.983111-19.114667 27.363556l-165.432889 77.186844a60.882489 60.882489 0 0 1-50.403555 0l-165.432889-77.186844a29.366044 29.366044 0 0 1-19.114667-27.363556c0-12.117333 7.588978-22.983111 19.114667-27.363555l165.432889-77.186845a60.882489 60.882489 0 0 1 50.403555 0z" fill="#2684FC" p-id="11146"></path>
</svg>