<?xml version="1.0" encoding="UTF-8"?>
<svg width="72px" height="90px" viewBox="0 0 72 90" version="1.1" xmlns="http://www.w3.org/2000/svg" xmlns:xlink="http://www.w3.org/1999/xlink">
    <title>项目@1x</title>
    <g id="Data-Modele" stroke="none" stroke-width="1" fill="none" fill-rule="evenodd">
        <g id="01-首页初次登录" transform="translate(-116.000000, -216.000000)" fill-rule="nonzero">
            <g id="首页-项目" transform="translate(60.000000, 98.000000)">
                <g id="首页/项目列表" transform="translate(0.000000, 78.000000)">
                    <g id="项目" transform="translate(56.000000, 40.000000)">
                        <path d="M10.9024925,17.497245 L34.5417073,10.3623415 C36.5544137,9.75500009 38.7067156,9.75500009 40.7194221,10.3623415 L64.3586368,17.4998217 C68.7653948,18.829576 71.7735361,22.8224462 71.7760971,27.3454217 L71.7760971,57.8897142 C71.7760971,64.6542509 68.3941094,70.9885846 62.7249044,74.8392972 L43.611286,87.8207503 C40.0132671,90.2646444 35.2478622,90.2646444 31.6498433,87.8207503 L12.5362249,74.8392972 C6.86778335,70.9891032 3.48503226,64.6559167 3.48503226,57.8922909 L3.48503226,27.3479984 C3.48503226,22.8231187 6.49388017,18.8275596 10.9024925,17.497245 Z" id="路径" fill="#F7FAFF"></path>
                        <g id="编组-4">
                            <path d="M3.48387097,52.4050633 C5.40795977,52.4050633 6.96774194,53.9352293 6.96774194,55.8227848 C6.96774194,57.7103403 5.40795977,59.2405063 3.48387097,59.2405063 C1.55978216,59.2405063 0,57.7103403 0,55.8227848 C0,53.9352293 1.55978216,52.4050633 3.48387097,52.4050633 Z M65.0322581,52.4050633 C66.9563469,52.4050633 68.516129,53.9352293 68.516129,55.8227848 C68.516129,57.7103403 66.9563469,59.2405063 65.0322581,59.2405063 C63.1081693,59.2405063 61.5483871,57.7103403 61.5483871,55.8227848 C61.5483871,53.9352293 63.1081693,52.4050633 65.0322581,52.4050633 Z M33.6774193,0 C34.9220865,0 36.0722065,0.651414019 36.6945401,1.70886074 C37.3168737,2.76630747 37.3168737,4.06913557 36.6945401,5.12658229 C36.0722065,6.18402902 34.9220865,6.83544304 33.6774193,6.83544304 C31.7533305,6.83544304 30.1935484,5.30527699 30.1935484,3.41772152 C30.1935484,1.53016604 31.7533305,0 33.6774193,0 Z" id="形状结合" fill="#2684FC"></path>
                            <path d="M59.2410335,64.5861326 L40.127415,77.5675858 C36.5293962,80.0114798 31.7639913,80.0114798 28.1659724,77.5675858 L9.05235396,64.5861326 C8.52617862,64.2287368 8.01969806,63.8499462 7.53378974,63.4514024 L14.894,63.4502405 L32.1978202,75.2025703 C33.1979578,75.8814558 34.5222086,75.8814558 35.5223462,75.2025703 L52.825,63.4502405 L60.7597726,63.4512425 C60.2738179,63.8498445 59.7672797,64.2286887 59.2410335,64.5861326 Z M40.646,1.13924051 L60.8747659,7.24665715 C65.2815238,8.57641144 68.2896651,12.5692816 68.2922261,17.0922571 L68.292,45.2232405 L63.073,45.2232405 L63.0738438,15.0070618 C63.0702526,13.7517915 62.2343747,12.6448986 61.0113523,12.2758526 L40.646,6.12724051 L40.646,1.13924051 Z M26.71,1.42124051 L26.71,6.23624051 L6.70881408,12.2758526 C5.48476306,12.6452121 4.64863533,13.7535978 4.64632258,15.0099277 L4.646,45.2232405 L0.001,45.2232405 L0.00116129032,17.0948338 C0.00116129032,12.5699541 3.0100092,8.57439506 7.41862156,7.24408044 L26.71,1.42124051 Z" id="形状结合" fill="#1A2A4C"></path>
                        </g>
                        <g id="编组-2" transform="translate(16.258065, 21.645570)">
                            <path d="M20.7893207,8.0750043 L35.3297136,14.8589268 C36.3421049,15.2435883 37.0094337,16.1991526 37.0094337,17.2642539 C37.0094337,18.3293552 36.3421412,19.2849195 35.3297136,19.6695809 L30.7177162,21.8209367 L35.3297136,23.9728509 C36.3421049,24.3575123 37.0094337,25.3130766 37.0094337,26.3781779 C37.0094337,27.4432792 36.3421412,28.3988435 35.3297136,28.783505 L20.7893207,35.5674275 C19.3845582,36.2075176 17.7635917,36.2075176 16.3588292,35.5674275 L1.81843633,28.7835406 C0.806045032,28.3988435 0.138716182,27.4432792 0.138716182,26.3781779 C0.138716182,25.3130766 0.806008733,24.3575123 1.81843633,23.9728509 L6.42971618,21.8209367 L1.81843633,19.6696165 C0.806045032,19.2849195 0.138716182,18.3293552 0.138716182,17.2642539 C0.138716182,16.1991526 0.806008733,15.2435883 1.81843633,14.8589268 L16.3588292,8.0750043 C17.7635917,7.43491418 19.3845582,7.43491418 20.7893207,8.0750043 Z" id="形状结合" fill="#D5E6FD"></path>
                            <path d="M3.00822298,25.0105505 L17.259382,31.9621615 C18.0879109,32.3643122 19.060239,32.3643122 19.888768,31.9621615 L34.1530673,25.0105505 C34.789363,24.6250773 35.5931736,24.6258565 36.2286914,25.0125626 C36.8642093,25.3992687 37.222073,26.1053565 37.1527778,26.8358437 C37.0834827,27.5663309 36.5989532,28.1955138 35.9016112,28.4605386 L21.6241352,35.4121852 C20.6755906,35.8714016 19.6318355,36.1097374 18.574075,36.1086534 C17.5163173,36.1096772 16.4725623,35.8713537 15.5240148,35.4121496 L1.2596791,28.4605386 C0.562337098,28.1955138 0.077807618,27.5663309 0.00851249462,26.8358437 C-0.0607826287,26.1053565 0.297081059,25.3992687 0.932598876,25.0125626 C1.56811669,24.6258565 2.37192737,24.6250773 3.00822298,25.0105505 Z M3.00822298,16.8337348 L17.259382,23.7853101 C18.0895278,24.18062 19.0586222,24.18062 19.888768,23.7853101 L34.1530673,16.8337348 C34.789363,16.4482615 35.5931736,16.4490407 36.2286914,16.8357468 C36.8642093,17.2224529 37.222073,17.9285407 37.1527778,18.6590279 C37.0834827,19.3895152 36.5989532,20.018698 35.9016112,20.2837229 L21.6241352,27.2353338 C20.6755876,27.6945379 19.6318326,27.9328615 18.574075,27.9317664 C17.5163984,27.9321665 16.4728023,27.6938793 15.5240148,27.2353338 L1.2596791,20.2837229 C0.562337098,20.018698 0.077807618,19.3895152 0.00851249462,18.6590279 C-0.0607826287,17.9285407 0.297081059,17.2224529 0.932598876,16.8357468 C1.56811669,16.4490407 2.37192737,16.4482615 3.00822298,16.8337348 Z M20.7893207,0.480067593 L35.3297136,7.26399012 C36.3421049,7.64865157 37.0094337,8.60421587 37.0094337,9.66931717 C37.0094337,10.7344185 36.3421412,11.6899828 35.3297136,12.0746442 L20.7893207,18.8585668 C19.3845582,19.4986569 17.7635917,19.4986569 16.3588292,18.8585668 L1.81843633,12.0746798 C0.806045032,11.6899828 0.138716182,10.7344185 0.138716182,9.66931717 C0.138716182,8.60421587 0.806008733,7.64865157 1.81843633,7.26399012 L16.3588292,0.480067593 C17.7635917,-0.160022531 19.3845582,-0.160022531 20.7893207,0.480067593 Z" id="形状结合" fill="#2684FC"></path>
                        </g>
                    </g>
                </g>
            </g>
        </g>
    </g>
</svg>