<?xml version="1.0" encoding="UTF-8"?>
<svg width="14px" height="14px" viewBox="0 0 14 14" version="1.1" xmlns="http://www.w3.org/2000/svg" xmlns:xlink="http://www.w3.org/1999/xlink">
    <title>发布@1x</title>
    <defs>
        <filter id="filter-1">
            <feColorMatrix in="SourceGraphic" type="matrix" values="0 0 0 0 0.400000 0 0 0 0 0.400000 0 0 0 0 0.400000 0 0 0 1.000000 0"></feColorMatrix>
        </filter>
    </defs>
    <g id="8.-API-Monitor-EN" stroke="none" stroke-width="1" fill="none" fill-rule="evenodd">
        <g id="8.2API-Monitor-批量编辑-" transform="translate(-318.000000, -182.000000)">
            <g id="内容" transform="translate(68.000000, 108.000000)">
                <g id="编组-5" transform="translate(24.000000, 65.000000)">
                    <g id="Icon/发布/默认" transform="translate(210.000000, 0.000000)" filter="url(#filter-1)">
                        <g transform="translate(16.000000, 9.000000)" id="发布" fill-rule="nonzero">
                            <rect id="矩形" fill="#000000" opacity="0" x="0" y="0" width="14" height="14"></rect>
                            <path d="M13.6322382,0.381378567 C13.9693848,0.723640522 14.086227,1.22600333 13.9347245,1.68191788 L10.5242327,11.8957565 C10.3882853,12.3027115 10.0569773,12.614141 9.64239905,12.7246802 C9.53343416,12.7566269 9.42080919,12.7744098 9.30730225,12.7775902 C8.99630649,12.7774528 8.69605902,12.6637821 8.46294649,12.4579255 L6.29584022,10.5487556 C6.11862524,10.3912312 6.03891013,10.1511295 6.08672279,9.91889466 C6.13453545,9.68665978 6.30261201,9.49757366 6.52763964,9.42286321 C6.75266727,9.34815275 7.00045893,9.39916826 7.1776739,9.55669268 L9.29627932,11.4217709 L12.6516565,1.34682108 L1.36418534,4.89840624 L4.49932996,7.42721261 C4.51159544,7.41673081 4.52401334,7.40639216 4.53658202,7.39620015 L8.94575044,3.81154623 C9.1285365,3.65238251 9.38374136,3.60594975 9.61087521,3.69053137 C9.83800905,3.77511299 10.0006839,3.97715859 10.0348446,4.21711041 C10.0690054,4.45706223 9.96917932,4.69647878 9.7746741,4.84108706 L5.36550568,8.42574098 C5.23223295,8.53297238 5.15578867,8.69561978 5.15827476,8.86665782 L5.15827476,12.5571318 C5.1582929,12.9198319 4.86619527,13.2148801 4.50351325,13.2185071 C4.13824578,13.2185071 3.84213666,12.9223993 3.84213666,12.5571318 L3.84213666,8.8556349 C3.8420379,8.77238675 3.84746766,8.6897869 3.85819985,8.60831053 L0.46912415,5.87503705 C0.10649596,5.57891386 -0.0649220795,5.1080344 0.0224678316,4.6480875 C0.109857743,4.1881406 0.442030354,3.81294336 0.88799515,3.67045284 L12.3364009,0.0593439047 C12.794545,-0.0852765791 13.2950916,0.0391166129 13.6322382,0.381378567 Z" id="形状结合" fill="#666666"></path>
                        </g>
                    </g>
                </g>
            </g>
        </g>
    </g>
</svg>