<?xml version="1.0" encoding="UTF-8"?>
<svg width="14px" height="14px" viewBox="0 0 14 14" version="1.1" xmlns="http://www.w3.org/2000/svg" xmlns:xlink="http://www.w3.org/1999/xlink">
    <title>编组@1x</title>
    <g id="Data-Modele" stroke="none" stroke-width="1" fill="none" fill-rule="evenodd">
        <g id="7.1-API-Monitor-" transform="translate(-1320.000000, -266.000000)">
            <g id="表格" transform="translate(108.000000, 204.000000)">
                <g id="Variant" transform="translate(1021.000000, 13.000000)">
                    <g id="操作按钮备份-7" transform="translate(0.000000, 46.000000)">
                        <g id="操作/发布/蓝色" transform="translate(191.000000, 0.000000)">
                            <g id="编组" transform="translate(0.000000, 3.000000)">
                                <rect id="矩形" fill="#D8D8D8" opacity="0" x="0" y="0" width="14" height="14"></rect>
                                <path d="M7.52934311,7.2506838 L9.05897221,8.77919556 C9.18376129,8.90415515 9.22102941,9.091881 9.15342676,9.25497922 C9.08582412,9.41807744 8.92663704,9.52449341 8.74997348,9.52468625 C8.63406332,9.52468625 8.5229003,9.47867787 8.44097475,9.39674161 L7.438,8.395 L7.43886281,12.4703127 C7.43886281,12.7115051 7.24319474,12.9070303 7.00182594,12.9070303 C6.76045713,12.9070303 6.56478905,12.7115052 6.56478905,12.4703127 L6.564,8.395 L5.56267713,9.39674161 C5.39131416,9.56304539 5.11807564,9.56104991 4.94916344,9.3922611 C4.78025124,9.22347229 4.77825431,8.95043336 4.94467965,8.77919556 L6.47430875,7.2506838 C6.76959675,6.96924314 7.23405511,6.96924314 7.52934311,7.2506838 Z M7.00182594,2 C8.84278878,2 10.4371396,3.27677805 10.8381904,5.07221335 C12.6965355,5.25072345 14.0866806,6.8566869 13.9957865,8.72002248 C13.9048924,10.5833581 12.3650303,12.0466036 10.498121,12.04366 C10.2567522,12.04366 10.0610841,11.8481348 10.0610841,11.6069423 C10.0610841,11.3657498 10.2567522,11.1702247 10.498121,11.1702247 C11.4349505,11.1702247 12.3006166,10.6707972 12.7690313,9.86007176 C13.2374461,9.04934629 13.2374461,8.05049132 12.7690313,7.23976585 C12.3006166,6.42904038 11.4349505,5.9296129 10.498121,5.92961291 L10.1121287,5.92961291 L10.0344522,5.54867912 C9.84469343,4.01920987 8.54413129,2.87077098 7.00182593,2.87077098 C5.45952057,2.87077098 4.15895843,4.01920987 3.96919966,5.54867912 L3.91935015,5.94786635 L3.5167982,5.93080707 L3.51423744,5.93080707 C2.57263977,5.92181409 1.69852988,6.41807984 1.22421321,7.23094176 C0.74989653,8.04380368 0.748227239,9.04840767 1.21983994,9.86283909 C1.69145264,10.6772705 2.56390848,11.1764342 3.50553084,11.1705659 C3.66166909,11.1705659 3.80594678,11.2538038 3.88401591,11.3889247 C3.96208504,11.5240456 3.96208504,11.6905214 3.88401591,11.8256424 C3.80594678,11.9607633 3.66166909,12.0440134 3.50553084,12.0440134 C1.63720979,12.0488969 0.0951718437,10.5851119 0.00421326633,8.72036302 C-0.086745311,6.85561411 1.3055205,5.24890889 3.16546152,5.07221335 C3.56651227,3.27677805 5.16086309,2 7.00182594,2 Z" id="形状结合" fill="#2684FC" fill-rule="nonzero"></path>
                            </g>
                        </g>
                    </g>
                </g>
            </g>
        </g>
    </g>
</svg>