<?xml version="1.0" encoding="UTF-8"?>
<svg width="64px" height="64px" viewBox="0 0 64 64" version="1.1" xmlns="http://www.w3.org/2000/svg" xmlns:xlink="http://www.w3.org/1999/xlink">
    <title>编组 3@1x</title>
    <g id="Data-Modele" stroke="none" stroke-width="1" fill="none" fill-rule="evenodd">
        <g id="02-HOME" transform="translate(-542.000000, -531.000000)">
            <g id="编组-7" transform="translate(60.000000, 513.000000)">
                <g id="首页/查询结果/列表" transform="translate(454.000000, 0.000000)">
                    <g id="编组-3" transform="translate(28.000000, 18.000000)">
                        <path d="M32,64 C54.9486678,64 64,54.9486678 64,32 C64,9.05133219 54.9486678,0 32,0 C9.05133219,0 0,9.05133219 0,32 C0,54.9486678 9.05133219,64 32,64 Z" id="椭圆形" fill="#FF6A00" opacity="0.06"></path>
                        <g id="数据" transform="translate(18.000000, 18.000000)" fill-rule="nonzero">
                            <rect id="矩形" fill="#000000" opacity="0" x="0" y="0" width="28" height="28"></rect>
                            <path d="M26.1332604,2.05494847 L14.823289,2.05494847 L14.823289,0.812493336 C14.8173361,0.362066351 14.450604,0 14.0001448,0 C13.5496534,0 13.1827926,0.362034151 13.1768397,0.812493336 L13.1768397,2.05498064 L1.86661088,2.05498064 C0.835693616,2.05498064 0,2.89067425 0,3.92149498 L0,19.2927424 C0,20.32337 0.835693616,21.1592246 1.86661088,21.1592246 L13.1768719,21.1592246 L13.1768719,22.0980485 L8.06495349,25.9714696 C7.7096767,26.2482966 7.64281092,26.7590572 7.91477898,27.1180988 C8.18674704,27.4770117 8.69651018,27.5509245 9.05922006,27.2838153 L13.1768397,24.1635192 L13.1768397,25.3546183 C13.1827926,25.8051096 13.5496535,26.1671116 14.0001448,26.1671116 C14.4506039,26.1671116 14.8173361,25.8051096 14.823289,25.3546183 L14.823289,24.1635192 L18.9407799,27.2838153 C19.1147266,27.4158287 19.3340463,27.4732172 19.5503591,27.4433214 C19.7667178,27.4134918 19.9623182,27.298806 20.0940056,27.1245666 C20.2259268,26.9506363 20.283318,26.7314086 20.2535439,26.5151484 C20.2236287,26.298882 20.1090705,26.1033414 19.9350465,25.9715018 L14.823289,22.0980163 L14.823289,21.1591924 L26.1332604,21.1591924 C27.1643064,21.1591924 28,20.32337 28,19.2927102 L28,3.92146282 C28,2.89064209 27.1643064,2.05494847 26.1332604,2.05494847 Z M26.3538724,19.2927102 C26.3538724,19.4140854 26.2549252,19.5131614 26.1332604,19.5131614 L1.86661088,19.5131614 C1.74539655,19.5131614 1.64615972,19.414182 1.64615972,19.2927102 L1.64615972,3.92146282 C1.64615972,3.79995887 1.74526781,3.70101165 1.86661088,3.70101165 L26.1332604,3.70101165 C26.2547643,3.70101165 26.3538724,3.79995887 26.3538724,3.92146282 L26.3538724,19.2927102 Z M22.6737764,8.6296444 L16.6781871,13.4786367 L10.336363,9.17518941 C10.0230141,8.96242877 9.60492597,8.99113154 9.32349759,9.24459728 L4.25826942,13.8038271 C4.09592814,13.949696 3.99825369,14.1541323 3.9867733,14.3720787 C3.97529291,14.5900251 4.05094894,14.8035916 4.19706697,14.9657087 C4.50124514,15.3035772 5.02153047,15.3309606 5.35955988,15.0270398 L9.94562614,10.8995738 L16.2587153,15.183296 C16.5589899,15.3866333 16.956847,15.3700102 17.2391132,15.1423334 L23.7088768,9.90990864 C23.8786396,9.77261519 23.986938,9.57352988 24.009966,9.35641566 C24.0328864,9.13932326 23.9686747,8.9220124 23.8314427,8.75224242 C23.6942439,8.58236606 23.4951079,8.47404005 23.2779497,8.45115331 C23.0608486,8.42808016 22.8434842,8.49229619 22.6737764,8.6296444 L22.6737764,8.6296444 Z" id="形状" fill="#FF6A00"></path>
                        </g>
                    </g>
                </g>
            </g>
        </g>
    </g>
</svg>