<?xml version="1.0" encoding="UTF-8"?>
<svg width="16px" height="16px" viewBox="0 0 16 16" version="1.1" xmlns="http://www.w3.org/2000/svg" xmlns:xlink="http://www.w3.org/1999/xlink">
    <title>postgre_sql@1x</title>
    <g id="6.SQLeditor" stroke="none" stroke-width="1" fill="none" fill-rule="evenodd">
        <g id="6.4-SQLeditor-执行失败" transform="translate(-417.000000, -162.000000)" fill-rule="nonzero">
            <g id="SQL-代码编辑器" transform="translate(383.000000, 140.000000)">
                <g id="SQL/TAB/Query" transform="translate(10.000000, 12.000000)">
                    <g id="编组-12" transform="translate(12.000000, 0.000000)">
                        <g id="postgre_sql" transform="translate(12.000000, 10.000000)">
                            <rect id="矩形" fill="#000000" opacity="0" x="0" y="0" width="16" height="16"></rect>
                            <path d="M10.8738046,0.135376731 C12.5065697,-0.180043782 14.0094556,0.00549769628 15.2587683,1.23007145 C15.6218371,1.56135011 15.8170693,2.03808004 15.7906538,2.5288618 C15.6957504,4.28306666 15.2231902,5.99609713 14.4052775,7.55085115 C14.1935635,8.00697712 13.9388372,8.44187554 13.6445574,8.8496415 C13.8719737,7.92550591 13.8930894,6.96262778 13.7064046,6.02941103 C13.6842234,5.77039059 13.703008,5.50949268 13.762067,5.25632153 C14.037545,4.06777399 13.7271226,2.81918621 12.9271303,1.89802078 C12.3719306,1.17481472 11.6727629,0.574625567 10.8738046,0.135376731 L10.8738046,0.135376731 Z M6.04354149,9.35060349 C5.2884957,8.83182366 4.90255736,7.92245645 5.05398694,7.01896558 C5.13738367,6.4343769 5.13738367,5.84091021 5.05398694,5.25632153 C5.01355342,5.10008064 5.03988641,4.93406288 5.12668341,4.79800272 C5.21348041,4.66194255 5.35292979,4.56808525 5.51165592,4.53889448 C5.85484314,4.37449157 6.22654304,4.2778916 6.60635065,4.25439755 C7.15060565,4.25439755 7.41654843,4.55126392 7.54642747,5.07696477 C7.82273191,6.49630403 7.59756394,7.96754716 6.90940173,9.2392786 C6.81866213,9.38129246 6.66963675,9.47577548 6.50248488,9.49726643 C6.335333,9.51875739 6.16725392,9.46504494 6.04354149,9.35060349 Z M6.84136985,5.21485617 C7.02691133,5.21485617 7.22482224,5.15709588 7.21245281,4.90439462 C7.20008338,4.65169336 6.98980303,4.53617279 6.7053061,4.56505293 C6.61253536,4.56505293 6.35896201,4.4784125 6.38988559,4.81775419 C6.42080917,5.15709588 6.61872008,5.2004161 6.84136985,5.21485617 Z M4.49736251,7.29109308 C4.56917684,6.75618824 4.598131,6.21639991 4.58394853,5.67688222 C4.34039753,3.88392405 4.82113438,2.06780705 5.91984718,0.630154007 C4.94228385,0.269356866 3.89386608,0.142275923 2.85841278,0.25907105 C1.72251936,0.353292968 0.798011605,1.21139961 0.619545611,2.33713561 C0.502443722,2.82903772 0.471060139,3.33745177 0.526774872,3.84002158 C0.736097659,5.97788014 1.2939105,8.06706679 2.17809403,10.0247375 C2.33448029,10.3954776 2.55657546,10.734906 2.83367392,11.0266615 C3.26041932,11.4657763 3.5634704,11.4719611 3.97166165,11.0266615 C4.37985291,10.581362 4.74475115,10.1360624 5.1529424,9.7031323 C5.33229916,9.51759082 5.31992973,9.41245065 5.1529424,9.2392786 C4.66429467,8.72697076 4.42469603,8.02625774 4.49736251,7.32201666 L4.49736251,7.29109308 Z M7.73815366,10.210279 C7.50931917,9.99381395 7.29903883,10.1360624 7.18152923,10.3463428 C6.78570741,11.0204768 6.11157337,11.1750947 5.270452,11.3358973 C5.62663297,11.5148281 6.02255971,11.5999736 6.42080917,11.5832859 C6.96787135,11.5680293 7.47803331,11.3038382 7.80618554,10.8658589 C7.89174103,10.7731694 7.93330479,10.6481639 7.9202848,10.5226985 C7.90726481,10.3972331 7.84091858,10.2834258 7.73815366,10.210279 L7.73815366,10.210279 Z M13.347691,4.41520016 C13.0693788,5.50989489 13.3167674,6.61695904 13.3105827,7.7240232 C13.3348087,8.00524469 13.2580671,8.28589954 13.0941177,8.51566684 C12.6101528,7.71375602 12.1963027,6.87157105 11.8571745,5.99848745 C11.7788526,5.76979858 11.7249516,5.53346338 11.6963719,5.29342983 C11.6447124,4.90889931 11.8052651,4.52653349 12.115961,4.29415349 C12.4266569,4.06177348 12.838806,4.01579618 13.1930731,4.17399624 C13.3291369,4.22965869 13.3600605,4.31005999 13.3291369,4.41520016 L13.347691,4.41520016 Z M12.7910666,4.65678668 C12.7910666,4.41411188 12.673557,4.36714257 12.4756461,4.39845544 C12.2777352,4.42976832 12.086009,4.39845544 12.0921937,4.7428971 C12.0983784,5.08733875 12.2777352,5.04819766 12.4447225,5.04819766 C12.6117098,5.04819766 12.7848819,4.9464308 12.7910666,4.65678668 L12.7910666,4.65678668 Z M13.4528312,10.0556611 C13.261105,9.96289037 13.0384552,10.1979096 12.9827928,10.4452982 C12.9271303,10.6926868 12.9394998,10.8163812 13.1930731,10.84112 C14.0673448,10.9766015 14.9592993,10.7536128 15.6669595,10.2226484 C14.9320458,10.3868907 14.165333,10.335347 13.4590159,10.0742153 L13.4528312,10.0556611 Z M12.9766081,9.2763869 C12.4410626,8.44232394 11.971651,7.56760541 11.5726775,6.66025205 C11.3044945,6.12971042 11.1706977,5.54142926 11.1830404,4.94708574 C11.1811474,4.36576565 11.5729884,3.85688123 12.1354867,3.71014255 C12.4921584,3.64117702 12.8545353,3.60597469 13.217812,3.60500238 C12.8096207,1.82380418 10.8243269,0.277625198 8.83284839,0.166300311 C7.43205651,-0.0309005307 6.08224508,0.771273116 5.58587251,2.09593169 C5.35657683,2.59494068 5.2083431,3.12732945 5.14675768,3.67303425 C5.14675768,3.80291329 4.94266206,3.93279232 5.10964939,4.05030192 C5.27663672,4.16781153 5.36940746,4.05030192 5.50547121,4.0008242 C5.69356254,3.91373859 5.89057129,3.84737775 6.09301922,3.80291329 C6.68430224,3.59271589 7.34367912,3.78753178 7.72578423,4.28532113 C7.89458342,4.57263532 7.99804988,4.89359249 8.02883531,5.22539795 C8.31913313,6.28099136 8.2338762,7.40463408 7.78763139,8.40434195 C7.65156764,8.68883888 7.55261219,8.98570525 7.4412873,9.2763869 C7.37944014,9.43718951 7.35470128,9.53614497 7.58972048,9.61654627 C8.27003923,9.82682662 8.41847242,10.1113235 8.41847242,10.8534895 C8.3636747,12.1380276 8.41746675,13.424899 8.57927503,14.7003828 C8.61835892,15.2573429 8.97831144,15.7405006 9.50079771,15.937326 C10.0311327,16.0725118 10.5936146,15.9869874 11.0598019,15.7002823 C11.5259891,15.4135771 11.8560746,14.9501725 11.9746841,14.4158858 C12.1787797,13.1789427 12.3210282,11.9419995 12.4199836,10.6741327 C12.3855836,10.28401 12.5747911,9.90798986 12.9085762,9.7031323 C13.1435954,9.57325326 13.0508247,9.45574366 12.9456845,9.29494105 L12.9766081,9.2763869 Z" id="形状" fill="#336892"></path>
                        </g>
                    </g>
                </g>
            </g>
        </g>
    </g>
</svg>