<?xml version="1.0" encoding="UTF-8"?>
<svg width="15px" height="14px" viewBox="0 0 15 14" version="1.1" xmlns="http://www.w3.org/2000/svg" xmlns:xlink="http://www.w3.org/1999/xlink">
    <title>编组@1x</title>
    <g id="Data-Modele" stroke="none" stroke-width="1" fill="none" fill-rule="evenodd">
        <g id="7.1-API-Monitor-" transform="translate(-262.000000, -157.000000)">
            <g id="编组-5" transform="translate(108.000000, 148.000000)">
                <g id="按钮/图标/默认" transform="translate(130.000000, 0.000000)">
                    <g id="编组-11" transform="translate(24.000000, 6.000000)">
                        <g id="编组" transform="translate(0.000000, 3.000000)">
                            <polygon id="路径" points="0 0 14 0 14 14 0 14"></polygon>
                            <path d="M3.42409531,1.70311025 C4.69428422,0.602474656 6.31928033,-0.00233114812 7.99998646,6.75263102e-06 C11.866079,6.75263102e-06 14.9999729,3.13390748 14.9999729,7.00000675 C14.9999729,8.49519711 14.5309738,9.88119443 13.7329754,11.0179922 L11.4999797,7.00000675 L13.5999756,7.00000675 C13.6001599,4.75575854 12.260491,2.72817033 10.196008,1.84809676 C8.1315249,0.968023187 5.74102986,1.40547059 4.12199396,2.95960782 L3.42409531,1.70311025 Z M12.5758776,12.2968898 C11.3056887,13.3975253 9.68069258,14.0023311 7.99998646,13.9999932 C4.13389394,13.9999932 1,10.8660925 1,7 C1,5.50480289 1.46899909,4.11880557 2.26699755,2.98200777 L4.5,7 L2.39999729,7 C2.39981297,9.24424146 3.7394819,11.2718297 5.80396496,12.1519032 C7.86844801,13.0319768 10.258943,12.5945294 11.877979,11.0403922 L12.5758776,12.2968898 L12.5758776,12.2968898 Z" id="形状" fill="#666666" fill-rule="nonzero"></path>
                        </g>
                    </g>
                </g>
            </g>
        </g>
    </g>
</svg>