<?xml version="1.0" standalone="no"?><!DOCTYPE svg PUBLIC "-//W3C//DTD SVG 1.1//EN" "http://www.w3.org/Graphics/SVG/1.1/DTD/svg11.dtd"><svg t="1633758350321" class="icon" viewBox="0 0 1024 1024" version="1.1" xmlns="http://www.w3.org/2000/svg" p-id="4213" xmlns:xlink="http://www.w3.org/1999/xlink" width="12" height="12"><defs><style type="text/css"></style></defs><path d="M863.670857 0H160.329143A160.548571 160.548571 0 0 0 0 160.329143v703.341714C0 952.100571 71.899429 1024 160.329143 1024h703.341714A160.548571 160.548571 0 0 0 1024 863.670857V160.329143A160.548571 160.548571 0 0 0 863.670857 0zM337.408 91.648h349.184v298.715429a65.828571 65.828571 0 0 1-65.828571 65.755428H403.163429a65.828571 65.828571 0 0 1-65.828572-65.828571V91.721143h0.146286z m594.944 772.022857a68.754286 68.754286 0 0 1-68.754286 68.754286H160.402286a68.754286 68.754286 0 0 1-68.754286-68.754286V160.329143a68.754286 68.754286 0 0 1 68.754286-68.754286h85.504v298.788572c0 86.674286 70.509714 157.403429 157.330285 157.403428H620.982857a157.549714 157.549714 0 0 0 157.403429-157.403428V91.648h85.357714a68.754286 68.754286 0 0 1 68.754286 68.754286v703.268571z m-348.964571-487.862857c25.307429 0 45.787429-20.48 45.787428-45.787429v-107.52a45.787429 45.787429 0 1 0-91.648 0v107.52c0 25.161143 20.48 45.787429 45.860572 45.787429z" p-id="4214" fill="#2684FC"></path></svg>