<?xml version="1.0" encoding="UTF-8"?>
<svg width="14px" height="14px" viewBox="0 0 14 14" version="1.1" xmlns="http://www.w3.org/2000/svg" xmlns:xlink="http://www.w3.org/1999/xlink">
    <title>嵌入@1x</title>
    <defs>
        <filter id="filter-1">
            <feColorMatrix in="SourceGraphic" type="matrix" values="0 0 0 0 0.149020 0 0 0 0 0.517647 0 0 0 0 0.988235 0 0 0 1.000000 0"></feColorMatrix>
        </filter>
    </defs>
    <g id="3.Database-Explorer" stroke="none" stroke-width="1" fill="none" fill-rule="evenodd">
        <g id="3.0.1-Database-Explorer" transform="translate(-115.000000, -319.000000)">
            <g id="左侧菜单选中" transform="translate(92.000000, 169.000000)">
                <g id="菜单栏/预览数据库" transform="translate(0.000000, 0.167070)">
                    <g id="左侧菜单栏" transform="translate(0.000000, 0.167070)">
                        <g id="编组-9" transform="translate(0.000000, 56.665860)">
                            <g id="编组-5" transform="translate(3.000000, 56.000000)">
                                <g id="Icon-SQL" transform="translate(20.000000, 34.000000)" filter="url(#filter-1)">
                                    <g transform="translate(0.000000, 3.000000)" id="嵌入" fill-rule="nonzero">
                                        <rect id="矩形" fill="#000000" opacity="0" x="0" y="0" width="14" height="14"></rect>
                                        <path d="M12.6947088,0 L7.1428029,0 C6.41553569,0 5.83112454,0.5911833 5.83112454,1.31229699 L5.83112454,2.5661253 L1.33115871,2.5661253 C0.597398056,2.5661253 0,3.16380511 0,3.89141532 L0,12.6682135 C0,13.4023202 0.597398056,14 1.33115871,14 L10.1038194,14 C10.83758,14 11.4284846,13.4023202 11.4284846,12.6682135 L11.4284846,8.17911834 L12.6882153,8.17911834 C13.4154825,8.17911834 13.9999473,7.58793504 13.9999473,6.86682135 L13.9999473,1.31879351 C14.0063872,0.5911833 13.421976,0 12.6947088,0 Z M10.396025,12.67471 C10.396025,12.837123 10.2661558,12.9670534 10.1038194,12.9670534 L1.33115871,12.9670534 C1.16882228,12.9670534 1.03895314,12.837123 1.03895314,12.67471 L1.03895314,3.89791183 C1.03895314,3.73549883 1.16882228,3.60556844 1.33115871,3.60556844 L5.8246311,3.60556844 L5.8246311,6.86682135 C5.8246311,7.05522042 5.86359184,7.23712297 5.94151333,7.39953597 L3.09737908,10.2515081 L3.09737908,9.20556845 C3.09737908,8.91972158 2.86361462,8.68584687 2.57790249,8.68584687 C2.29219037,8.68584687 2.05842592,8.91972158 2.05842592,9.20556845 L2.05842592,11.5053364 C2.05694577,11.6386526 2.10831129,11.767127 2.20128199,11.862645 C2.20777545,11.8691415 2.20777545,11.8691415 2.20777543,11.8756381 C2.2142689,11.8821346 2.22076234,11.8821346 2.22725581,11.8886311 C2.27271001,11.9276102 2.3181642,11.9665893 2.37660533,11.9860789 C2.44153991,12.012065 2.50647447,12.025058 2.57790249,12.025058 L4.87658634,12.025058 C5.16229845,12.025058 5.39606291,11.7911833 5.39606292,11.5053364 C5.39606294,11.2194896 5.16229846,10.9856149 4.87658634,10.9856149 L3.83113974,10.9856149 L6.70774127,8.10765661 C6.84410387,8.15313225 6.98695993,8.18561485 7.1428029,8.18561485 L10.396025,8.18561485 L10.396025,12.67471 Z M12.967434,6.87331787 C12.967434,7.02273782 12.8440583,7.1461717 12.6947088,7.1461717 L7.1428029,7.1461717 C6.99345339,7.1461717 6.8700777,7.02273782 6.8700777,6.87331787 L6.8700777,1.31879351 C6.8700777,1.16937356 6.99345339,1.04593968 7.1428029,1.04593968 L12.6947088,1.04593968 C12.8440583,1.04593968 12.967434,1.16937356 12.967434,1.31879351 L12.967434,6.87331787 L12.967434,6.87331787 Z" id="形状" fill="#2684FC" opacity="0.798192342"></path>
                                    </g>
                                </g>
                            </g>
                        </g>
                    </g>
                </g>
            </g>
        </g>
    </g>
</svg>