<?xml version="1.0" encoding="UTF-8"?>
<svg width="14px" height="14px" viewBox="0 0 14 14" version="1.1" xmlns="http://www.w3.org/2000/svg" xmlns:xlink="http://www.w3.org/1999/xlink">
    <title>搜索@1x</title>
    <g id="3.Database-Explorer" stroke="none" stroke-width="1" fill="none" fill-rule="evenodd">
        <g id="3.4INDEX-PROPERTIES" transform="translate(-302.000000, -239.000000)" fill-rule="nonzero">
            <g id="菜单分割线" transform="translate(68.000000, 108.000000)">
                <g id="浏览数据库/左侧菜单" transform="translate(24.000000, 61.000000)">
                    <g id="菜单栏/预览数据库" transform="translate(0.000000, 0.167070)">
                        <g id="左侧菜单栏" transform="translate(0.000000, 0.167070)">
                            <g id="编组-9" transform="translate(0.000000, 56.665860)">
                                <g id="搜索" transform="translate(210.000000, 13.000000)">
                                    <rect id="矩形" fill="#000000" opacity="0" x="0" y="0" width="14" height="14"></rect>
                                    <path d="M13.3230066,14 C13.1433755,14.0002403 12.9710669,13.9288264 12.844271,13.8015856 L10.1911907,11.1486662 C10.0641616,11.021697 9.99279237,10.849454 9.99279237,10.6698501 C9.99279237,10.4902463 10.0641616,10.3180032 10.1911907,10.191034 C11.1567079,9.22551685 11.6835584,7.93542494 11.6740642,6.55891926 C11.6645699,5.17887334 11.1177653,3.87735616 10.1343861,2.89397688 C9.15100679,1.9105976 7.8493287,1.36379304 6.46960462,1.35445971 L6.43307589,1.35445971 C5.07024836,1.35445971 3.79399555,1.88018383 2.83748983,2.83749413 C1.87197263,3.80301132 1.34512208,5.09310323 1.35461633,6.46960891 C1.36394967,7.84949391 1.91075423,9.15101109 2.89413351,10.1343904 C4.47211046,11.7123673 6.86015634,12.1244822 8.83624819,11.1594478 C9.17074849,11.0045386 9.56771022,11.1456562 9.72936903,11.4769473 C9.89102784,11.8082383 9.75798687,12.2079794 9.43004127,12.3763213 C6.93434023,13.594804 3.92289208,13.0785741 1.93601861,11.0918616 C0.699834758,9.85519497 0.0122255898,8.21687321 0.000156619044,6.47878133 C-0.01175142,4.7369883 0.655742796,3.10365504 1.87969678,1.87970106 C3.09303005,0.666528709 4.70850125,0 6.43275404,0 L6.47893795,0 C8.21686891,0.0119080391 9.85535159,0.699517207 11.0920182,1.93618382 C12.3286848,3.17285043 13.016294,4.81149405 13.0283629,6.549425 C13.0386618,8.06206861 12.5365928,9.49280419 11.6026159,10.6448271 L13.8019031,12.8441144 C13.9955186,13.0377956 14.0534106,13.3290312 13.9485877,13.5820362 C13.8437648,13.8350412 13.5968668,14 13.3230066,14 Z" id="路径" fill="#555555"></path>
                                </g>
                            </g>
                        </g>
                    </g>
                </g>
            </g>
        </g>
    </g>
</svg>