<svg t="1633775135490" class="icon" viewBox="0 0 1024 1024" version="1.1" xmlns="http://www.w3.org/2000/svg" p-id="9411" width="24" height="24">
    <path d="M367.580976 938.531669H153.19232a36.990043 36.990043 0 0 1-32.254293-34.6435V119.247023a37.758002 37.758002 0 0 1 32.254293-34.6435h701.402884a36.435405 36.435405 0 0 1 33.022253 34.6435V251.293369a39.763229 39.763229 0 0 0 30.633046 30.633046 38.568626 38.568626 0 0 0 46.760192-30.633046V96.848208C966.589278 33.96087 934.932286 1.621248 872.044948 0H138.174448C76.908357 1.621248 42.691501 35.582117 42.691501 96.805544v821.887175c0.810624 59.602179 34.984815 91.515157 95.482947 89.936574l-86.438092 0.76796h318.276491c20.948225-0.767959 39.293921-5.290387 39.293921-32.638273 0-34.515507-31.230347-38.22731-41.725792-38.227311z m473.062967-430.739873c-206.069096 216.223225-316.185935 333.465021-330.350519 351.768052-21.246876 27.475879-52.263901 129.102502-24.446707 153.76253 27.77453 24.660028 128.718522 1.279932 154.189174-18.260367 16.980435-13.055309 128.846515-133.070292 335.555577-360.002283 34.686165-41.89645 50.471996-93.392391 0-142.328468-50.471996-48.936077-118.009755-3.455817-134.947525 15.060536z m-297.328267 450.962803c-6.698312-6.655648 0.213322-47.229501 14.505899-66.983122 9.556828-13.097974 99.834717-108.922236 270.705675-287.430123l51.794593 53.842484c-167.031161 177.185291-258.162339 272.625574-273.393533 286.406177-22.782794 20.649574-56.914322 20.777567-63.569969 14.164584z m391.573946-358.295707c-5.589038 4.863743-11.647384 11.562055-15.060536 12.586001-3.413153 1.023946-47.357494-50.983969-46.162891-54.525115 1.194603-3.541146 9.642156-9.556828 14.932543-14.079255 5.290387-4.522427 35.454124-18.345696 53.501169 0 18.047045 18.345696-1.578583 51.197291-7.210285 56.018369z m-7.807587-276.593363c-20.948225-0.853288-38.696619 14.505899-39.507242 35.411459v25.811968c0.810624 20.90556 18.559018 36.264748 39.507242 35.411459a38.824612 38.824612 0 0 0 39.507243-35.411459V359.234324a42.109772 42.109772 0 0 0-39.507243-35.41146z m-109.647531 86.182106c0-28.15851-13.695275-41.89645-39.507243-41.89645H238.606467a39.37925 39.37925 0 0 0-35.496788 41.89645v4.010454a39.251256 39.251256 0 0 0 39.507243 37.885996h541.752665c18.559018 0 33.064917-25.769303 33.064917-41.89645z m-4.821078-218.313781a36.008761 36.008761 0 0 0-28.243839-7.252949H242.616922c-26.579927 0-39.507243 13.695275-39.507243 41.896449 0 28.15851 13.73794 41.89645 39.507243 41.89645H787.612082a38.952605 38.952605 0 0 0 36.264748-41.89645c0-13.695275 0-31.443669-11.263404-34.6435z m-569.996504 397.973607c-26.579927 0-39.507243 14.505899-39.507243 41.89645 0 27.390551 13.73794 41.89645 39.507243 41.89645h315.247318a41.597799 41.597799 0 0 0 38.696619-38.696619 41.768456 41.768456 0 0 0-38.696619-45.096281H242.616922z" p-id="9412" fill="#ffffff"></path>
</svg>