<?xml version="1.0" encoding="UTF-8"?>
<svg width="14px" height="14px" viewBox="0 0 14 14" version="1.1" xmlns="http://www.w3.org/2000/svg" xmlns:xlink="http://www.w3.org/1999/xlink">
    <title>切片</title>
    <defs>
        <filter id="filter-1">
            <feColorMatrix in="SourceGraphic" type="matrix" values="0 0 0 0 1.000000 0 0 0 0 1.000000 0 0 0 0 1.000000 0 0 0 1.000000 0"></feColorMatrix>
        </filter>
    </defs>
    <g id="6.SQLeditor" stroke="none" stroke-width="1" fill="none" fill-rule="evenodd">
        <g id="6.4-SQLeditor-执行失败" transform="translate(-1252.000000, -453.000000)">
            <g id="SQL-代码编辑器" transform="translate(372.000000, 148.000000)">
                <g id="编组-4" transform="translate(778.000000, 296.000000)">
                    <g id="按钮/执行成功/默认" transform="translate(86.000000, 0.000000)">
                        <g id="Icon/执行" transform="translate(16.000000, 6.000000)" filter="url(#filter-1)">
                            <g transform="translate(0.000000, 3.000000)" id="执行" fill-rule="nonzero">
                                <rect id="矩形" fill="#000000" opacity="0" x="0" y="0" width="14" height="14"></rect>
                                <path d="M7,0 C8.85651543,0 10.6369928,0.737497883 11.9497475,2.05025253 C13.2625021,3.36300718 14,5.14348457 14,7 C14,10.8659932 10.8659932,14 7,14 C3.13400675,14 0,10.8659932 0,7 C0,3.13400675 3.13400675,0 7,0 Z M7,0.999999998 C3.6862915,0.999999998 0.999999998,3.6862915 0.999999998,7 C0.999999998,10.3137085 3.6862915,13 7,13 C10.3137085,13 13,10.3137085 13,7 C13,3.6862915 10.3137085,0.999999998 7,0.999999998 Z M5.43,4.00000001 C5.58560019,4.00354551 5.73745767,4.04841249 5.86999999,4.13 L5.86999999,4.13 L9.515,6.235 C9.78742607,6.39346006 9.9550281,6.68484043 9.9550281,7.00000001 C9.9550281,7.31515957 9.78742607,7.60653994 9.515,7.765 L9.515,7.765 L5.86999999,9.87 C5.59697804,10.0300406 5.25904715,10.0311545 4.98497607,9.87291726 C4.71090499,9.71467999 4.54290783,9.42146423 4.54498069,9.105 L4.54498069,9.105 L4.54498069,4.885 C4.54498069,4.396228 4.941228,4.00000001 5.43,4.00000001 Z M5.545,5.0975 L5.545,8.9025 L8.84,7 L5.545,5.0975 Z" id="形状结合" fill="#999999"></path>
                            </g>
                        </g>
                    </g>
                </g>
            </g>
        </g>
    </g>
</svg>