<svg t="1635236740626" class="icon" viewBox="0 0 1024 1024" version="1.1" xmlns="http://www.w3.org/2000/svg" p-id="3788" width="12" height="12">
    <path d="M869.888 0A154.24 154.24 0 0 1 1024 154.112v715.52a154.24 154.24 0 0 1-154.112 154.112H154.368a154.24 154.24 0 0 1-154.112-154.112v-428.16a45.44 45.44 0 0 1 90.88 0v428.16c0 34.88 28.352 63.232 63.232 63.232h715.52a63.296 63.296 0 0 0 63.232-63.232V154.112a63.296 63.296 0 0 0-63.232-63.232h-400a45.44 45.44 0 0 1 0-90.88zM1.152 35.456C7.04 11.136 31.36-4.224 55.68 1.472 60.8 2.56 182.208 31.232 299.968 115.968c133.184 95.744 208.448 224.064 220.8 374.912l113.92-143.936a45.44 45.44 0 1 1 71.296 56.32L512.96 647.04a45.376 45.376 0 0 1-63.104 8L255.808 507.584a45.248 45.248 0 0 1-8.768-63.616 45.248 45.248 0 0 1 63.616-8.704l121.024 91.776c-2.304-136.832-63.552-249.536-182.4-335.872C145.984 116.48 36.16 89.984 35.072 89.792a45.376 45.376 0 0 1-33.92-54.4z" p-id="3789" fill="#666666"></path>
</svg>