<?xml version="1.0" encoding="UTF-8"?>
<svg width="14px" height="14px" viewBox="0 0 14 14" version="1.1" xmlns="http://www.w3.org/2000/svg" xmlns:xlink="http://www.w3.org/1999/xlink">
    <title>切片</title>
    <g id="6.SQLeditor" stroke="none" stroke-width="1" fill="none" fill-rule="evenodd">
        <g id="6.4-SQLeditor-执行失败" transform="translate(-1166.000000, -453.000000)">
            <g id="SQL-代码编辑器" transform="translate(372.000000, 148.000000)">
                <g id="编组-4" transform="translate(778.000000, 296.000000)">
                    <g id="编组-8" transform="translate(16.000000, 6.000000)">
                        <g id="编组-5" transform="translate(0.000000, 3.000000)">
                            <rect id="矩形" fill-opacity="0" fill="#000000" x="0" y="0" width="14" height="14"></rect>
                            <path d="M12.1749469,0 C13.181104,0 14,0.818895966 14,1.82505308 L14,1.82505308 L14,12.1734607 C14,13.181104 13.181104,14 12.1734607,14 L12.1734607,14 L1.82505308,14 C0.818895966,14 0,13.181104 0,12.1734607 L0,12.1734607 L0,1.82505308 C0,0.818895966 0.818895966,0 1.82505308,0 L1.82505308,0 Z M3.04225053,1.21571125 L1.82505308,1.21571125 C1.48917197,1.21571125 1.21571125,1.48917197 1.21571125,1.82505308 L1.21571125,1.82505308 L1.21571125,12.1749469 C1.21571125,12.510828 1.48917197,12.7842887 1.82505308,12.7842887 L1.82505308,12.7842887 L12.1734607,12.7842887 C12.5093418,12.7842887 12.7828025,12.510828 12.7828025,12.1749469 L12.7828025,12.1749469 L12.7828025,1.82653928 C12.7828025,1.49065817 12.5093418,1.21719745 12.1734607,1.21719745 L12.1734607,1.21719745 L10.9562633,1.21719745 L10.9562633,3.65010616 C10.9562633,4.65774947 10.1373673,5.47664544 9.12972399,5.47664544 L9.12972399,5.47664544 L4.86878981,5.47664544 C3.8611465,5.47664544 3.04225053,4.65774947 3.04225053,3.65010616 L3.04225053,3.65010616 L3.04225053,1.21571125 Z M10.3484076,9.4343949 C10.6828025,9.4343949 10.9562633,9.70934183 10.9577495,10.0437367 C10.9577495,10.3796178 10.6828025,10.6530786 10.3484076,10.6530786 L10.3484076,10.6530786 L3.65159236,10.6530786 C3.31571125,10.6530786 3.04225053,10.3781316 3.04225053,10.0437367 C3.04225053,9.70785563 3.31719745,9.4343949 3.65159236,9.4343949 L3.65159236,9.4343949 Z M9.73906582,1.21719745 L4.25944798,1.21719745 L4.25944798,3.65159236 C4.25944798,3.98747346 4.5329087,4.26093418 4.86878981,4.26093418 L4.86878981,4.26093418 L9.12972399,4.26093418 C9.4656051,4.26093418 9.73906582,3.98747346 9.73906582,3.65159236 L9.73906582,3.65159236 L9.73906582,1.21719745 Z M8.21719745,1.97813163 C8.63630573,1.97813163 8.97813163,2.31995754 8.97813163,2.73906582 C8.97813163,3.1581741 8.63630573,3.5 8.21719745,3.5 C7.79957537,3.5 7.45626327,3.1581741 7.45626327,2.73906582 C7.45626327,2.31995754 7.79808917,1.97813163 8.21719745,1.97813163 Z" id="形状结合" fill="#666666" fill-rule="nonzero"></path>
                        </g>
                    </g>
                </g>
            </g>
        </g>
    </g>
</svg>