<?xml version="1.0" encoding="UTF-8"?>
<svg width="14px" height="14px" viewBox="0 0 14 14" version="1.1" xmlns="http://www.w3.org/2000/svg" xmlns:xlink="http://www.w3.org/1999/xlink">
    <title>表格@1x</title>
    <defs>
        <filter id="filter-1">
            <feColorMatrix in="SourceGraphic" type="matrix" values="0 0 0 0 0.149020 0 0 0 0 0.517647 0 0 0 0 0.988235 0 0 0 1.000000 0"></feColorMatrix>
        </filter>
    </defs>
    <g id="3.Database-Explorer" stroke="none" stroke-width="1" fill="none" fill-rule="evenodd">
        <g id="3.0.1-Database-Explorer" transform="translate(-135.000000, -453.000000)">
            <g id="左侧菜单选中" transform="translate(92.000000, 169.000000)">
                <g id="菜单栏/预览数据库" transform="translate(0.000000, 0.167070)">
                    <g id="左侧菜单栏" transform="translate(0.000000, 0.167070)">
                        <g id="编组-9" transform="translate(0.000000, 56.665860)">
                            <g id="编组-7" transform="translate(0.000000, 190.000000)">
                                <g id="编组-6" transform="translate(0.000000, 34.000000)">
                                    <g id="Icon-SQL" transform="translate(26.000000, 0.000000)" filter="url(#filter-1)">
                                        <g transform="translate(17.000000, 3.000000)" fill-rule="nonzero" id="表格">
                                            <g>
                                                <rect id="矩形" fill="#000000" opacity="0" x="0" y="0" width="14" height="14"></rect>
                                                <path d="M14,5.00161291 L14,2.00024999 C14,0.895548386 13.1044516,0 11.99975,0 L2.00024999,0 C0.895548386,0 0,0.895548386 0,2.00024999 L0,11.99975 C0,13.1044516 0.895548386,14 2.00024999,14 L11.99975,14 C13.1044516,14 14,13.1044516 14,11.99975 L14,5.00161291 Z M1.29274193,1.29274193 C1.48025468,1.10425878 1.73534029,0.99856594 2.00120968,0.99919077 L12.0024597,0.99919077 C12.2677776,0.999507406 12.5220849,1.1052947 12.7093486,1.29324673 C12.8966124,1.48119875 13.001466,1.73589244 13.0008096,2.00120968 L13.0008096,4.00241936 L0.99919077,4.00241936 L0.99919077,2.00120968 C0.99856594,1.73534029 1.10425878,1.48025468 1.29274193,1.29274193 Z M5.49838709,8.50161291 L5.49838709,5.00161291 L8.50161291,5.00161291 L8.50161291,8.50161291 L5.49838709,8.50161291 Z M8.50161291,9.50080645 L8.50161291,13.0008065 L5.49838709,13.0008065 L5.49838709,9.50080645 L8.50161291,9.50080645 Z M4.49919355,8.50161291 L0.999193549,8.50161291 L0.999193549,5.00161291 L4.49919355,5.00161291 L4.49919355,8.50161291 Z M1.29274193,12.7089516 C1.10434646,12.5221893 0.998621639,12.2677382 0.999191241,12.0024597 L0.999191241,9.50080645 L4.49919124,9.50080645 L4.49919124,13.0008179 L2.00120968,13.0008179 C1.73554646,13.0020775 1.48042328,12.8969789 1.29274193,12.7089516 Z M13.0008065,12.0024597 C13.0013173,12.267394 12.8962987,12.5216243 12.7089615,12.7089615 C12.5216243,12.8962987 12.267394,13.0013173 12.0024597,13.0008065 L9.50080645,13.0008065 L9.50080645,9.50080645 L13.0008065,9.50080645 L13.0008065,12.0024597 L13.0008065,12.0024597 Z M13.0008065,8.50161291 L9.50080645,8.50161291 L9.50080645,5.00161291 L13.0008065,5.00161291 L13.0008065,8.50161291 Z" id="形状" fill="#2684FC" opacity="0.79700361"></path>
                                            </g>
                                        </g>
                                    </g>
                                </g>
                            </g>
                        </g>
                    </g>
                </g>
            </g>
        </g>
    </g>
</svg>