<?xml version="1.0" standalone="no"?><!DOCTYPE svg PUBLIC "-//W3C//DTD SVG 1.1//EN" "http://www.w3.org/Graphics/SVG/1.1/DTD/svg11.dtd"><svg t="1633758456144" class="icon" viewBox="0 0 1024 1024" version="1.1" xmlns="http://www.w3.org/2000/svg" p-id="4493" xmlns:xlink="http://www.w3.org/1999/xlink" width="12" height="12"><defs><style type="text/css"></style></defs><path d="M1024 365.860571V146.285714a146.285714 146.285714 0 0 0-146.285714-146.285714H146.285714a146.285714 146.285714 0 0 0-146.285714 146.285714v731.428572a146.285714 146.285714 0 0 0 146.285714 146.285714h731.428572a146.285714 146.285714 0 0 0 146.285714-146.285714V365.860571zM94.573714 94.500571A72.850286 72.850286 0 0 1 146.285714 73.142857h731.501715a73.142857 73.142857 0 0 1 73.069714 73.289143v146.358857H73.069714v-146.285714c0-19.529143 7.68-38.180571 21.504-51.931429z m307.565715 527.36v-256h219.721142v256H402.139429z m219.721142 73.069715V950.857143H402.139429V694.857143h219.721142z m-292.790857-73.142857H73.142857v-256h256v256zM94.573714 929.645714a72.557714 72.557714 0 0 1-21.504-51.712V694.930286h256V950.857143H146.358857a72.704 72.704 0 0 1-51.785143-21.357714zM950.857143 877.860571a72.850286 72.850286 0 0 1-73.069714 73.069715H694.930286V694.857143H950.857143v182.930286z m0-256H694.857143v-256H950.857143v256z" p-id="4494"></path></svg>