<?xml version="1.0" encoding="UTF-8"?>
<svg width="40px" height="40px" viewBox="0 0 40 40" version="1.1" xmlns="http://www.w3.org/2000/svg" xmlns:xlink="http://www.w3.org/1999/xlink">
    <title>Waiting@1x</title>
    <g id="6.SQLeditor" stroke="none" stroke-width="1" fill="none" fill-rule="evenodd">
        <g id="6.2-SQLeditor-执行" transform="translate(-874.000000, -654.000000)" fill-rule="nonzero">
            <g id="Waiting" transform="translate(874.000000, 654.000000)">
                <rect id="矩形" fill="#000000" opacity="0" x="0" y="0" width="40" height="40"></rect>
                <path d="M32.5,17.5 L35,17.5 C36.3807119,17.5 37.5,18.6192881 37.5,20 C37.5,21.3807119 36.3807119,22.5 35,22.5 L32.5,22.5 C31.1192881,22.5 30,21.3807119 30,20 C30,18.6192881 31.1192881,17.5 32.5,17.5 Z M26.7666667,9.785 L28.535,8.01833332 C29.1664669,7.38656867 30.0870089,7.13967765 30.9498666,7.37066173 C31.8127243,7.6016458 32.4868091,8.275413 32.7181999,9.13816173 C32.9495907,10.0009105 32.7031336,10.9215687 32.0716667,11.5533333 L30.3033333,13.32 C29.6783394,13.9810728 28.7435692,14.2504526 27.8626252,14.0233573 C26.9816811,13.796262 26.2936378,13.1085431 26.0661271,12.2277063 C25.8386164,11.3468695 26.1075553,10.4119723 26.7683333,9.78666668 L26.7666667,9.785 Z M26.7666667,30.3033333 C25.7905034,29.3267098 25.7908765,27.7436633 26.7675,26.7675 C27.7441235,25.7913367 29.32717,25.7917098 30.3033333,26.7683333 L32.07,28.535 C33.0179035,29.5154988 33.005094,31.0747784 32.0412099,32.0395719 C31.0773258,33.0043654 29.5180589,33.0186452 28.5366667,32.0716667 L26.7683333,30.3033333 L26.7666667,30.3033333 Z M5,17.5 L7.5,17.5 C8.88071187,17.5 10,18.6192881 10,20 C10,21.3807119 8.88071187,22.5 7.5,22.5 L5,22.5 C3.61928813,22.5 2.5,21.3807119 2.5,20 C2.5,18.6192881 3.61928813,17.5 5,17.5 Z M20,2.5 C21.3807119,2.5 22.5,3.61928813 22.5,5 L22.5,7.5 C22.5,8.88071187 21.3807119,10 20,10 C18.6192881,10 17.5,8.88071187 17.5,7.5 L17.5,5 C17.5,3.61928813 18.6192881,2.5 20,2.5 Z M20,30 C21.3807119,30 22.5,31.1192881 22.5,32.5 L22.5,35 C22.5,36.3807119 21.3807119,37.5 20,37.5 C18.6192881,37.5 17.5,36.3807119 17.5,35 L17.5,32.5 C17.5,31.1192881 18.6192881,30 20,30 Z M8.01666668,8.01666668 C8.4855536,7.54747917 9.12168117,7.28386708 9.785,7.28386708 C10.4483188,7.28386708 11.0844464,7.54747917 11.5533333,8.01666668 L13.32,9.785 C14.2679035,10.7654988 14.255094,12.3247784 13.2912099,13.2895719 C12.3273258,14.2543654 10.7680589,14.2686452 9.78666668,13.3216667 L8.01666668,11.5533333 C7.04071183,10.5770837 7.04071183,8.99458295 8.01666668,8.01833332 L8.01666668,8.01666668 Z M8.01666668,32.0716667 C7.54747916,31.6027798 7.28386706,30.9666522 7.28386706,30.3033333 C7.28386706,29.6400145 7.54747916,29.0038869 8.01666668,28.535 L9.785,26.7683333 C10.7611633,25.7917098 12.3442098,25.7913367 13.3208333,26.7675 C14.2974569,27.7436633 14.29783,29.3267098 13.3216667,30.3033333 L11.5533333,32.07 C10.5770837,33.0459548 8.99458295,33.0459548 8.01833332,32.07 L8.01666668,32.0716667 Z" id="形状" fill="#2684FC"></path>
            </g>
        </g>
    </g>
</svg>