<?xml version="1.0" encoding="UTF-8"?>
<svg width="24px" height="24px" viewBox="0 0 24 24" version="1.1" xmlns="http://www.w3.org/2000/svg" xmlns:xlink="http://www.w3.org/1999/xlink">
    <g id="页面-1" stroke="none" stroke-width="1" fill="none" fill-rule="evenodd" opacity="0.9">
        <g id="header" transform="translate(-1284.000000, -15.000000)" fill-rule="nonzero">
            <g id="icon" transform="translate(1230.000000, 15.000000)">
                <g id="user" transform="translate(54.000000, 0.000000)">
                    <rect id="矩形" fill="#000000" opacity="0" x="0" y="0" width="24" height="24"></rect>
                    <path d="M12,1.75000001 C6.34999999,1.75000001 1.75000001,6.34999999 1.75000001,12 C1.75000001,17.65 6.34999999,22.25 12,22.25 C17.65,22.25 22.25,17.65 22.25,12 C22.25,6.34999999 17.65,1.75000001 12,1.75000001 Z M6.75,19 C6.75,16.1 9.10000001,13.75 12,13.75 C14.9,13.75 17.25,16.1 17.25,19 C15.8,20.1 13.95,20.75 12,20.75 C10.05,20.75 8.20000001,20.1 6.75,19 Z M9.75,10 C9.75,8.75000001 10.75,7.75000001 12,7.75000001 C13.25,7.75000001 14.25,8.75000001 14.25,10 C14.25,11.25 13.25,12.25 12,12.25 C10.75,12.25 9.75,11.25 9.75,10 Z M18.6,17.7 C18.15,15.45 16.6,13.6 14.5,12.75 C15.25,12.05 15.7,11.1 15.7,10 C15.7,7.95 14,6.25000001 11.95,6.25000001 C9.9,6.25000001 8.20000001,7.95 8.20000001,10 C8.20000001,11.1 8.65,12.05 9.40000001,12.75 C7.30000001,13.6 5.75000002,15.45 5.29999999,17.7 C3.99999998,16.15 3.15,14.2 3.15,12 C3.15,7.2 7.09999999,3.25000001 11.9,3.25000001 C16.7,3.25000001 20.75,7.2 20.75,12 C20.75,14.2 19.95,16.15 18.6,17.7 Z" id="形状" fill="#FFFFFF"></path>
                </g>
            </g>
        </g>
    </g>
</svg>