<?xml version="1.0" encoding="UTF-8"?>
<svg width="14px" height="14px" viewBox="0 0 14 14" version="1.1" xmlns="http://www.w3.org/2000/svg" xmlns:xlink="http://www.w3.org/1999/xlink">
    <title>图标/导出@1x</title>
    <g id="Data-Modele" stroke="none" stroke-width="1" fill="none" fill-rule="evenodd">
        <g id="7.1-API-Monitor-" transform="translate(-1193.000000, -266.000000)">
            <g id="表格" transform="translate(108.000000, 204.000000)">
                <g id="Variant" transform="translate(1021.000000, 13.000000)">
                    <g id="操作按钮备份-7" transform="translate(0.000000, 46.000000)">
                        <g id="操作/查看/蓝色" transform="translate(64.000000, 0.000000)">
                            <g id="图标/导出" transform="translate(0.000000, 3.000000)">
                                <rect id="矩形" fill-opacity="0" fill="#F57171" x="0" y="0" width="14" height="14"></rect>
                                <path d="M8.37132445,4.60007189 C9.80331942,4.59990538 11.111865,5.41078452 11.7490734,6.6931944 C12.3862818,7.97560427 12.2422042,9.50826803 11.3771658,10.6494596 L12.7609387,12.0339866 C12.9575522,12.2301411 12.9629149,12.5469623 12.7730527,12.7496586 C12.5831905,12.9523548 12.2666956,12.9676972 12.0581178,12.7843158 L12.0339866,12.7616928 L10.6502137,11.3771658 C9.34063564,12.3694464 7.5393322,12.3996653 6.19720711,11.4518702 C4.85508201,10.504075 4.2810492,8.79641769 4.77813921,7.2303663 C5.27522922,5.66431492 6.72902793,4.60032406 8.37207855,4.60007189 L8.37132445,4.60007189 Z M8.37132445,5.62866389 C7.39146619,5.62866389 6.4860398,6.151412 5.99611066,6.99999415 C5.50618152,7.84857629 5.50618152,8.89407262 5.99611066,9.74265476 C6.4860398,10.5912369 7.39146619,11.113985 8.37132445,11.113985 C9.88605406,11.113985 11.113985,9.88605406 11.113985,8.37132445 C11.113985,6.85659485 9.88605406,5.62866389 8.37132445,5.62866389 L8.37132445,5.62866389 Z M11.8002157,1 C12.4464792,1 12.9766113,1.51278779 12.9992342,2.15905122 L13,2.1997726 L13,4.1430875 C13.0013069,4.42219102 12.7797712,4.65140431 12.5007847,4.65959173 C12.2217981,4.66777916 11.9872018,4.45195199 11.9721505,4.17325149 L11.9713964,4.1430875 L11.9713964,2.1990185 C11.9712482,2.11246514 11.9065155,2.03964086 11.8205764,2.02934607 L11.8002157,2.02783788 L2.2005267,2.02783788 C2.11368577,2.027604 2.04042899,2.092433 2.03010017,2.17865781 L2.02859197,2.1990185 L2.02859197,11.7987075 C2.02859197,11.8861831 2.09344455,11.9593308 2.17941191,11.9691341 L2.1997726,11.9706423 L3.81052954,11.9706423 C4.08963306,11.9693237 4.31884634,12.1908594 4.32703377,12.469846 C4.33522119,12.7488325 4.11939403,12.9834288 3.84069353,12.9984801 L3.81052954,12.9992342 L2.1990185,12.9992342 C1.55275507,12.9992342 1.02262299,12.4864465 1,11.840183 L1,11.8002157 L1,2.2005267 C1,1.55275507 1.51278779,1.02262299 2.15905122,1 L2.1990185,1 L11.7987075,1 L11.8002157,1 Z" id="形状" fill="#0A6FEB" fill-rule="nonzero"></path>
                            </g>
                        </g>
                    </g>
                </g>
            </g>
        </g>
    </g>
</svg>