<?xml version="1.0" standalone="no"?><!DOCTYPE svg PUBLIC "-//W3C//DTD SVG 1.1//EN" "http://www.w3.org/Graphics/SVG/1.1/DTD/svg11.dtd"><svg t="1631345434253" class="icon" viewBox="0 0 1024 1024" version="1.1" xmlns="http://www.w3.org/2000/svg" p-id="1975" xmlns:xlink="http://www.w3.org/1999/xlink" width="200" height="200"><defs><style type="text/css"></style></defs><path d="M606.025143 528.146286c64.585143 0 117.723429 72.850286 125.074286 83.382857a2.486857 2.486857 0 0 1 0 2.523428c-7.350857 10.532571-60.708571 83.382857-125.074286 83.382858s-117.741714-72.850286-125.074286-83.382858a2.486857 2.486857 0 0 1 0-2.523428c7.332571-10.532571 60.470857-83.382857 125.074286-83.382857z m0 27.245714c-46.08 0-84.736 41.106286-95.524572 53.76l-1.828571 2.194286a2.413714 2.413714 0 0 0 0 2.925714c7.314286 8.941714 48.091429 55.899429 97.353143 55.899429 49.243429 0 90.020571-46.957714 97.353143-55.899429a2.413714 2.413714 0 0 0 0-2.980571c-7.332571-8.923429-48.109714-55.881143-97.353143-55.881143z m57.618286-228.809143c17.645714 0 32.073143 14.427429 32.073142 32.054857v135.606857a13.787429 13.787429 0 0 1-13.750857 13.750858 13.769143 13.769143 0 0 1-13.732571-13.750858v-135.606857a4.571429 4.571429 0 0 0-4.571429-4.571428h-339.017143a4.571429 4.571429 0 0 0-4.571428 4.571428V629.76c0 2.505143 2.048 4.571429 4.571428 4.571429h141.549715c7.570286 0 13.750857 6.217143 13.750857 13.750857a13.787429 13.787429 0 0 1-13.750857 13.732571h-141.549715A32.182857 32.182857 0 0 1 292.571429 629.76V358.637714c0-17.627429 14.445714-32.054857 32.073142-32.054857h339.017143z m-56.868572 249.563429a32.822857 32.822857 0 1 1 0 65.645714 32.822857 32.822857 0 0 1 0-65.645714z m-4.461714-134.637715a13.750857 13.750857 0 0 1 4.516571 25.014858l-89.088 57.965714c-2.980571 1.810286-6.381714 2.742857-9.856 2.742857v0.036571a18.029714 18.029714 0 0 1-9.618285-2.779428l-63.908572-39.862857-36.425143 21.083428a13.604571 13.604571 0 0 1-18.779428-5.046857 13.604571 13.604571 0 0 1 5.046857-18.779428l41.216-23.826286c5.851429-3.364571 13.037714-3.291429 18.797714 0.237714l63.451429 39.625143 84.297143-54.528a13.750857 13.750857 0 0 1 10.349714-1.883429z" fill="#2684FC" p-id="1976"></path></svg>