<?xml version="1.0" encoding="UTF-8"?>
<svg width="14px" height="14px" viewBox="0 0 14 14" version="1.1" xmlns="http://www.w3.org/2000/svg" xmlns:xlink="http://www.w3.org/1999/xlink">
    <title>编组 3@1x</title>
    <g id="Data-Modele" stroke="none" stroke-width="1" fill="none" fill-rule="evenodd">
        <g id="7.2API-Monitor-批量编辑-" transform="translate(-125.000000, -156.000000)">
            <g id="编组-5" transform="translate(108.000000, 148.000000)">
                <g id="编组-11" transform="translate(17.000000, 6.000000)">
                    <g id="编组-3" transform="translate(0.000000, 2.000000)">
                        <rect id="矩形" fill="#D8D8D8" opacity="0" x="0" y="0" width="14" height="14"></rect>
                        <path d="M8.10303031,3.4469697 L2.03636365,3.4469697 L3.94545456,1.53787878 C4.20000001,1.28333334 4.20000001,0.901515147 3.94545456,0.646969699 C3.69090911,0.392424252 3.30909092,0.392424252 3.05454546,0.646969699 L0.254545457,3.4469697 C-0.0848484856,3.78636364 -0.0848484856,4.38030303 0.254545457,4.71969697 L3.05454546,7.51969697 C3.18181818,7.64696969 3.35151515,7.68939394 3.52121212,7.68939394 C3.69090909,7.68939394 3.86060606,7.64696969 3.98787879,7.51969697 C4.24242424,7.26515152 4.24242424,6.88333333 3.98787879,6.62878787 L2.07878789,4.71969697 L8.14545456,4.71969697 C10.6909091,4.71969697 12.769697,6.41666667 12.769697,8.49545453 C12.769697,10.5742424 10.6909091,12.2712121 8.14545456,12.2712121 L3.3939394,12.2712121 C3.05454546,12.2712121 2.75757576,12.5681818 2.75757576,12.9075757 C2.75757576,13.2469697 3.05454546,13.5439394 3.3939394,13.5439394 L8.10303031,13.5439394 C11.369697,13.5439394 14,11.2954545 14,8.49545453 C14,5.69545453 11.369697,3.44696968 8.10303031,3.4469697 Z" id="路径" fill="#666666" fill-rule="nonzero"></path>
                    </g>
                </g>
            </g>
        </g>
    </g>
</svg>